<svg width="139" height="114" viewBox="0 0 139 114" fill="none" xmlns="http://www.w3.org/2000/svg">
<g id="Mask Group">
<rect id="Rectangle 57" width="139" height="114" rx="6" fill="#2F80ED"/>
<g id="Mask Group_2">
<mask id="mask0_105_1041" style="mask-type:alpha" maskUnits="userSpaceOnUse" x="0" y="0" width="139" height="114">
<rect id="Rectangle 58" width="139" height="114" rx="6" fill="#2F80ED"/>
</mask>
<g mask="url(#mask0_105_1041)">
<path id="Vector 1" d="M47.5666 -14.1113C51.6557 -13.3199 56.2693 -10.689 59.2878 -7.74996C73.7697 6.35092 53.1516 16.2599 43.425 22.9469C34.1308 29.3367 33.8743 41.3317 26.0734 48.5548C16.3807 57.5294 8.15069 55.6165 -4.35559 54.653C-4.61373 54.0663 -4.9462 53.5055 -5.30025 52.8859C-7.34109 49.3144 -7.03111 44.6078 -8.22377 40.7317C-9.12058 37.817 -11.1279 35.5166 -12.1218 32.692C-13.7927 27.943 -16.4497 23.6062 -17.2379 18.5617C-18.0249 13.5252 -18.253 6.57677 -16.9943 1.61612C-15.6194 -3.80274 -15.2655 -10.7773 -10.8766 -14.8151C-6.01409 -19.2886 3.41365 -17.495 9.4256 -17.495C22.2476 -17.495 34.9961 -16.5443 47.5666 -14.1113Z" fill="url(#paint0_linear_105_1041)"/>
<path id="Vector 2" d="M127.72 62.9016C134.102 59.8015 140.942 59.5186 147.873 59.4933C148.545 60.9716 150.968 59.9552 152.191 60.8443C153.092 61.5 155.247 60.2796 155.98 61.1962C156.545 61.902 158.125 62.2941 158.904 63.1182C161.942 66.3352 163.032 71.688 164.859 75.5702C166.084 78.1725 166.582 81.4951 167.404 84.3137C168.485 88.0203 167.674 92.7905 167.674 96.6303C167.674 101.462 167.657 106.072 166.158 110.734C165.293 113.427 164.584 117.137 162.802 119.423C159.91 123.132 153.786 124.878 149.538 126.244C137.972 129.966 126.396 129.655 114.428 129.655C108.478 129.655 102.604 129.712 96.6979 128.897C94.4416 128.586 92.1433 128.804 89.9305 128.193C85.7458 127.039 81.2245 127.53 78.8861 123.321C77.2857 120.44 77.0454 118.97 77.0454 115.633C77.0454 93.0616 91.4422 96.9373 105.414 87.2642C115.467 80.3048 116.177 68.5079 127.72 62.9016Z" fill="url(#paint1_linear_105_1041)"/>
</g>
</g>
<g id="vaccine-development/bro">
<g id="Graphics">
<path id="Vector" d="M86.5208 90.4868C86.4227 90.488 86.3275 90.4539 86.2524 90.3905C86.1774 90.3271 86.1274 90.2388 86.1118 90.1415C85.3101 85.2219 90.341 81.9031 90.5558 81.7634C90.5885 81.7408 95.3127 78.348 95.3127 75.4279C95.3127 73.414 93.4148 71.8954 91.2225 70.1383C90.223 69.3707 89.2672 68.5474 88.3593 67.6724C85.3346 64.631 85.9236 61.9986 85.9502 61.8876C85.9766 61.7829 86.043 61.6928 86.135 61.6369C86.227 61.581 86.3372 61.5638 86.4418 61.5889C86.5463 61.614 86.6369 61.6795 86.6937 61.7712C86.7506 61.8628 86.7693 61.9733 86.7457 62.0787C86.7233 62.1815 86.2631 64.4029 88.9381 67.0908C89.8252 67.9442 90.7592 68.7469 91.7358 69.4951C93.9997 71.3076 96.1389 73.0174 96.1389 75.4279C96.1389 78.7713 91.2307 82.2977 91.0261 82.4456C90.9648 82.4867 86.2181 85.6247 86.9359 90.01C86.9531 90.1173 86.9272 90.2271 86.8639 90.3153C86.8007 90.4035 86.7052 90.4629 86.5985 90.4806L86.5208 90.4868Z" fill="#FDFDFD"/>
<path id="Vector_2" d="M95.5066 90.4867H95.4411C95.3344 90.469 95.2389 90.4096 95.1757 90.3214C95.1125 90.2332 95.0866 90.1234 95.1037 90.0161C95.8174 85.6307 91.0707 82.4928 91.0135 82.462C90.7906 82.3037 85.8823 78.7774 85.8823 75.4339C85.8823 73.0234 88.0215 71.3137 90.2875 69.5012C91.2612 68.7504 92.1931 67.9464 93.079 67.0928C95.7581 64.3987 95.2918 62.1731 95.2714 62.0807C95.2478 61.9753 95.2665 61.8648 95.3234 61.7731C95.3803 61.6815 95.4708 61.616 95.5754 61.5909C95.6799 61.5657 95.7901 61.583 95.8821 61.6389C95.9741 61.6948 96.0405 61.7848 96.0669 61.8896C96.0935 62.0005 96.6805 64.633 93.6558 67.6743C92.748 68.5494 91.7921 69.3727 90.7926 70.1403C88.5941 71.8973 86.7024 73.4159 86.7024 75.4298C86.7024 78.352 91.4266 81.7427 91.4736 81.7756C91.6781 81.9051 96.705 85.2239 95.9033 90.1435C95.8875 90.2383 95.8392 90.3245 95.7667 90.3872C95.6943 90.4499 95.6022 90.4851 95.5066 90.4867Z" fill="#FDFDFD"/>
<path id="Vector_3" d="M95.5249 63.6639H86.6062C86.5519 63.6639 86.4999 63.6422 86.4616 63.6036C86.4232 63.565 86.4017 63.5126 86.4017 63.458C86.4017 63.4034 86.4232 63.351 86.4616 63.3124C86.4999 63.2738 86.5519 63.2521 86.6062 63.2521H95.5249C95.5791 63.2521 95.6311 63.2738 95.6695 63.3124C95.7078 63.351 95.7294 63.4034 95.7294 63.458C95.7294 63.5126 95.7078 63.565 95.6695 63.6036C95.6311 63.6422 95.5791 63.6639 95.5249 63.6639Z" fill="#FDFDFD"/>
<path id="Vector_4" d="M95.5249 64.6155H86.6062C86.5519 64.6155 86.4999 64.5938 86.4616 64.5551C86.4232 64.5165 86.4017 64.4641 86.4017 64.4095C86.4017 64.3549 86.4232 64.3025 86.4616 64.2639C86.4999 64.2253 86.5519 64.2036 86.6062 64.2036H95.5249C95.5791 64.2036 95.6311 64.2253 95.6695 64.2639C95.7078 64.3025 95.7294 64.3549 95.7294 64.4095C95.7294 64.4641 95.7078 64.5165 95.6695 64.5551C95.6311 64.5938 95.5791 64.6155 95.5249 64.6155Z" fill="#FDFDFD"/>
<path id="Vector_5" d="M95.018 65.5648H87.1116C87.0574 65.5648 87.0054 65.5431 86.967 65.5045C86.9286 65.4659 86.9071 65.4135 86.9071 65.3589C86.9071 65.3043 86.9286 65.2519 86.967 65.2133C87.0054 65.1746 87.0574 65.153 87.1116 65.153H95.018C95.0722 65.153 95.1242 65.1746 95.1626 65.2133C95.2009 65.2519 95.2225 65.3043 95.2225 65.3589C95.2225 65.4135 95.2009 65.4659 95.1626 65.5045C95.1242 65.5431 95.0722 65.5648 95.018 65.5648Z" fill="#FDFDFD"/>
<path id="Vector_6" d="M94.2572 66.5163H87.8724C87.8181 66.5163 87.7661 66.4946 87.7277 66.456C87.6894 66.4174 87.6678 66.365 87.6678 66.3104C87.6678 66.2558 87.6894 66.2034 87.7277 66.1648C87.7661 66.1262 87.8181 66.1045 87.8724 66.1045H94.2572C94.3114 66.1045 94.3634 66.1262 94.4018 66.1648C94.4401 66.2034 94.4617 66.2558 94.4617 66.3104C94.4617 66.365 94.4401 66.4174 94.4018 66.456C94.3634 66.4946 94.3114 66.5163 94.2572 66.5163Z" fill="#FDFDFD"/>
<path id="Vector_7" d="M95.5249 88.8601H86.6062C86.5519 88.8601 86.4999 88.8384 86.4616 88.7998C86.4232 88.7612 86.4017 88.7088 86.4017 88.6542C86.4017 88.5996 86.4232 88.5472 86.4616 88.5086C86.4999 88.4699 86.5519 88.4482 86.6062 88.4482H95.5249C95.5791 88.4482 95.6311 88.4699 95.6695 88.5086C95.7078 88.5472 95.7294 88.5996 95.7294 88.6542C95.7294 88.7088 95.7078 88.7612 95.6695 88.7998C95.6311 88.8384 95.5791 88.8601 95.5249 88.8601Z" fill="#FDFDFD"/>
<path id="Vector_8" d="M95.5249 87.9085H86.6062C86.5519 87.9085 86.4999 87.8869 86.4616 87.8482C86.4232 87.8096 86.4017 87.7572 86.4017 87.7026C86.4017 87.648 86.4232 87.5956 86.4616 87.557C86.4999 87.5184 86.5519 87.4967 86.6062 87.4967H95.5249C95.5791 87.4967 95.6311 87.5184 95.6695 87.557C95.7078 87.5956 95.7294 87.648 95.7294 87.7026C95.7294 87.7572 95.7078 87.8096 95.6695 87.8482C95.6311 87.8869 95.5791 87.9085 95.5249 87.9085Z" fill="#FDFDFD"/>
<path id="Vector_9" d="M95.018 86.9592H87.1116C87.0574 86.9592 87.0054 86.9375 86.967 86.8989C86.9286 86.8603 86.9071 86.8079 86.9071 86.7533C86.9071 86.6987 86.9286 86.6463 86.967 86.6077C87.0054 86.5691 87.0574 86.5474 87.1116 86.5474H95.018C95.0722 86.5474 95.1242 86.5691 95.1626 86.6077C95.2009 86.6463 95.2225 86.6987 95.2225 86.7533C95.2225 86.8079 95.2009 86.8603 95.1626 86.8989C95.1242 86.9375 95.0722 86.9592 95.018 86.9592Z" fill="#FDFDFD"/>
<path id="Vector_10" d="M94.2572 86.0078H87.8724C87.8181 86.0078 87.7661 85.9861 87.7277 85.9475C87.6894 85.9089 87.6678 85.8565 87.6678 85.8019C87.6678 85.7473 87.6894 85.6949 87.7277 85.6563C87.7661 85.6176 87.8181 85.5959 87.8724 85.5959H94.2572C94.3114 85.5959 94.3634 85.6176 94.4018 85.6563C94.4401 85.6949 94.4617 85.7473 94.4617 85.8019C94.4617 85.8565 94.4401 85.9089 94.4018 85.9475C94.3634 85.9861 94.3114 86.0078 94.2572 86.0078Z" fill="#FDFDFD"/>
<path id="Vector_11" d="M95.5249 74.204H86.6062C86.5519 74.204 86.4999 74.1823 86.4616 74.1436C86.4232 74.105 86.4017 74.0527 86.4017 73.998C86.4017 73.9434 86.4232 73.891 86.4616 73.8524C86.4999 73.8138 86.5519 73.7921 86.6062 73.7921H95.5249C95.5791 73.7921 95.6311 73.8138 95.6695 73.8524C95.7078 73.891 95.7294 73.9434 95.7294 73.998C95.7294 74.0527 95.7078 74.105 95.6695 74.1436C95.6311 74.1823 95.5791 74.204 95.5249 74.204Z" fill="#FDFDFD"/>
<path id="Vector_12" d="M95.5249 75.1205H86.6062C86.5519 75.1205 86.4999 75.0988 86.4616 75.0601C86.4232 75.0215 86.4017 74.9692 86.4017 74.9145C86.4017 74.8599 86.4232 74.8075 86.4616 74.7689C86.4999 74.7303 86.5519 74.7086 86.6062 74.7086H95.5249C95.5791 74.7086 95.6311 74.7303 95.6695 74.7689C95.7078 74.8075 95.7294 74.8599 95.7294 74.9145C95.7294 74.9692 95.7078 75.0215 95.6695 75.0601C95.6311 75.0988 95.5791 75.1205 95.5249 75.1205Z" fill="#FDFDFD"/>
<path id="Vector_13" d="M95.6764 76.031H86.453C86.3987 76.031 86.3467 76.0093 86.3084 75.9707C86.27 75.9321 86.2485 75.8797 86.2485 75.8251C86.2485 75.7704 86.27 75.7181 86.3084 75.6795C86.3467 75.6408 86.3987 75.6191 86.453 75.6191H95.6764C95.7306 75.6191 95.7826 75.6408 95.821 75.6795C95.8594 75.7181 95.8809 75.7704 95.8809 75.8251C95.8809 75.8797 95.8594 75.9321 95.821 75.9707C95.7826 76.0093 95.7306 76.031 95.6764 76.031Z" fill="#FDFDFD"/>
<path id="Vector_14" d="M95.474 76.9536H86.6556C86.6013 76.9536 86.5493 76.9319 86.5109 76.8933C86.4726 76.8547 86.451 76.8023 86.451 76.7477C86.451 76.6931 86.4726 76.6407 86.5109 76.6021C86.5493 76.5634 86.6013 76.5417 86.6556 76.5417H95.474C95.5283 76.5417 95.5803 76.5634 95.6186 76.6021C95.657 76.6407 95.6785 76.6931 95.6785 76.7477C95.6785 76.8023 95.657 76.8547 95.6186 76.8933C95.5803 76.9319 95.5283 76.9536 95.474 76.9536Z" fill="#FDFDFD"/>
<path id="Vector_15" d="M95.0998 77.8802H87.0319C86.9777 77.8802 86.9256 77.8585 86.8873 77.8199C86.8489 77.7813 86.8274 77.7289 86.8274 77.6743C86.8274 77.6197 86.8489 77.5673 86.8873 77.5287C86.9256 77.4901 86.9777 77.4684 87.0319 77.4684H95.1019C95.1561 77.4684 95.2081 77.4901 95.2465 77.5287C95.2848 77.5673 95.3064 77.6197 95.3064 77.6743C95.3064 77.7289 95.2848 77.7813 95.2465 77.8199C95.2081 77.8585 95.1561 77.8802 95.1019 77.8802H95.0998Z" fill="#FDFDFD"/>
<path id="Vector_16" d="M40.3055 67.5347C40.3403 67.6334 40.4221 67.7895 40.51 67.7895C40.6429 67.7895 40.7493 67.5964 40.7493 67.358C40.7493 67.1196 40.6429 66.9264 40.51 66.9264C40.4302 66.9264 40.3525 67.0641 40.3055 67.1484L39.4138 67.1217C39.3865 66.5568 39.2423 66.004 38.9905 65.4982L40.1644 64.7708C40.2503 64.8468 40.4159 64.9496 40.4977 64.9023C40.6245 64.8283 40.6225 64.5858 40.4977 64.3577C40.373 64.1296 40.1583 64.0063 40.0315 64.0803C39.9578 64.1235 39.9578 64.2981 39.9701 64.3968L38.743 65.0585C38.4315 64.5872 38.0271 64.185 37.5548 63.8768L37.9639 63.1001C38.0661 63.1206 38.242 63.1268 38.2849 63.0507C38.3524 62.9357 38.2399 62.7446 38.0334 62.6254C37.8268 62.5062 37.608 62.5041 37.5405 62.6254C37.5017 62.6932 37.5814 62.8309 37.6346 62.9028L37.1683 63.6652C36.6669 63.4088 36.1183 63.2591 35.5568 63.2254L35.5159 61.8383C35.6243 61.8013 35.7961 61.7088 35.7961 61.6123C35.7961 61.4664 35.5915 61.3472 35.3236 61.3472C35.0557 61.3472 34.8512 61.4664 34.8512 61.6123C34.8512 61.7006 35.0005 61.7869 35.0925 61.8178L35.0516 63.2172C34.4934 63.2529 33.9484 63.4033 33.4503 63.659L32.9881 62.9069C33.0577 62.8268 33.1497 62.6767 33.1067 62.6028C33.0413 62.4856 32.8204 62.4897 32.6139 62.6028C32.4073 62.7158 32.2969 62.911 32.3623 63.0281C32.4012 63.096 32.5668 63.096 32.6507 63.0836L33.072 63.8707C32.5997 64.1788 32.1953 64.581 31.8838 65.0523L30.671 64.3968C30.6935 64.2837 30.6997 64.0885 30.6179 64.0413C30.4911 63.9673 30.2825 64.0926 30.1516 64.3187C30.0207 64.5447 30.0186 64.7893 30.1516 64.8632C30.2252 64.9064 30.3765 64.818 30.4563 64.7584L31.6404 65.4921C31.3886 65.9978 31.2444 66.5507 31.2171 67.1155L30.3356 67.1422C30.3009 67.0436 30.2191 66.8874 30.1311 66.8874C29.9982 66.8874 29.8918 67.0806 29.8918 67.3189C29.8918 67.5573 29.9982 67.7505 30.1311 67.7505C30.2109 67.7505 30.2886 67.6128 30.3254 67.5286L31.2171 67.5553C31.2444 68.1201 31.3886 68.673 31.6404 69.1787L30.4665 69.9062C30.3786 69.8301 30.215 69.7274 30.1332 69.7746C30.0064 69.8486 30.0084 70.0911 30.1332 70.3192C30.2579 70.5473 30.4727 70.6706 30.5995 70.5966C30.6731 70.5535 30.6731 70.3788 30.6608 70.2802L31.8879 69.6185C32.1994 70.0898 32.6038 70.4919 33.0761 70.8001L32.667 71.5769C32.5648 71.5563 32.3889 71.5501 32.346 71.6262C32.2785 71.7413 32.391 71.9324 32.5975 72.0516C32.8041 72.1708 33.0229 72.1728 33.0904 72.0516C33.1292 71.9838 33.0495 71.8461 32.9963 71.7741L33.4503 71.0241C33.9517 71.2805 34.5003 71.4302 35.0619 71.4638L35.1028 72.8509C34.9944 72.8879 34.8226 72.9804 34.8226 73.0749C34.8226 73.2229 35.0271 73.3421 35.295 73.3421C35.5629 73.3421 35.7674 73.2229 35.7674 73.0749C35.7674 72.9886 35.6181 72.9023 35.5261 72.8694L35.567 71.47C36.1286 71.4363 36.6772 71.2866 37.1785 71.0302L37.6407 71.7824C37.5712 71.8625 37.4792 72.0125 37.5221 72.0865C37.5876 72.2036 37.8084 72.1995 38.015 72.0865C38.2215 71.9735 38.332 71.7782 38.2665 71.6611C38.2256 71.5933 38.062 71.5933 37.9782 71.6056L37.5569 70.8186C38.0291 70.5104 38.4335 70.1083 38.7451 69.637L39.9578 70.2925C39.9353 70.4055 39.9292 70.6007 40.011 70.648C40.1378 70.722 40.3464 70.5966 40.4773 70.3706C40.6082 70.1445 40.6102 69.9 40.4773 69.826C40.4016 69.7829 40.2523 69.8712 40.1726 69.9308L38.9885 69.1972C39.2402 68.6915 39.3844 68.1386 39.4118 67.5738L40.3055 67.5347Z" fill="white" stroke="#FDFDFD" stroke-width="0.5" stroke-linecap="round" stroke-linejoin="round"/>
<path id="Vector_17" d="M35.6404 64.1851C35.6432 64.2697 35.6208 64.3534 35.5761 64.4252C35.5313 64.497 35.4663 64.5537 35.3892 64.5882C35.3121 64.6226 35.2266 64.6331 35.1436 64.6183C35.0605 64.6036 34.9838 64.5642 34.9231 64.5054C34.8625 64.4465 34.8207 64.3707 34.8032 64.2879C34.7857 64.205 34.7932 64.1187 34.8247 64.0402C34.8563 63.9616 34.9105 63.8943 34.9804 63.8469C35.0503 63.7995 35.1327 63.7741 35.217 63.7741C35.2719 63.7721 35.3267 63.7813 35.378 63.8011C35.4293 63.8209 35.476 63.8509 35.5156 63.8892C35.5551 63.9276 35.5865 63.9736 35.6079 64.0244C35.6294 64.0752 35.6404 64.1298 35.6404 64.1851Z" fill="white" stroke="#FDFDFD" stroke-width="0.5" stroke-linecap="round" stroke-linejoin="round"/>
<path id="Vector_18" d="M33.0821 67.4628C33.0854 67.548 33.0632 67.6322 33.0185 67.7046C32.9738 67.777 32.9086 67.8344 32.8312 67.8693C32.7538 67.9041 32.6678 67.915 32.5843 67.9004C32.5007 67.8858 32.4234 67.8465 32.3622 67.7874C32.3011 67.7283 32.2589 67.6522 32.2411 67.5689C32.2234 67.4856 32.2308 67.3988 32.2624 67.3197C32.2941 67.2407 32.3486 67.1729 32.4188 67.1252C32.4891 67.0774 32.5719 67.0519 32.6568 67.0518C32.7118 67.0496 32.7668 67.0586 32.8183 67.0783C32.8698 67.0979 32.9169 67.1279 32.9566 67.1662C32.9963 67.2046 33.0279 67.2507 33.0495 67.3017C33.0711 67.3526 33.0822 67.4075 33.0821 67.4628Z" fill="white" stroke="#FDFDFD" stroke-width="0.5" stroke-linecap="round" stroke-linejoin="round"/>
<path id="Vector_19" d="M34.9781 66.4086C34.9813 66.4938 34.9591 66.5781 34.9143 66.6506C34.8695 66.723 34.8042 66.7804 34.7267 66.8152C34.6492 66.85 34.5631 66.8607 34.4794 66.846C34.3958 66.8312 34.3185 66.7917 34.2574 66.7324C34.1964 66.6731 34.1544 66.5968 34.1368 66.5134C34.1193 66.4299 34.127 66.3431 34.1589 66.264C34.1909 66.185 34.2457 66.1174 34.3162 66.0699C34.3868 66.0224 34.4698 65.9972 34.5547 65.9976C34.6096 65.9956 34.6644 66.0048 34.7157 66.0246C34.767 66.0444 34.8137 66.0744 34.8533 66.1127C34.8928 66.1511 34.9242 66.1971 34.9456 66.2479C34.9671 66.2987 34.9781 66.3534 34.9781 66.4086Z" fill="white" stroke="#FDFDFD" stroke-width="0.5" stroke-linecap="round" stroke-linejoin="round"/>
<path id="Vector_20" d="M33.9882 69.937C33.991 70.0217 33.9686 70.1053 33.9239 70.1771C33.8791 70.2489 33.814 70.3057 33.737 70.3401C33.6599 70.3745 33.5744 70.385 33.4914 70.3703C33.4083 70.3555 33.3316 70.3162 33.2709 70.2573C33.2103 70.1984 33.1685 70.1227 33.151 70.0398C33.1334 69.9569 33.1409 69.8707 33.1725 69.7921C33.2041 69.7135 33.2583 69.6462 33.3282 69.5988C33.3981 69.5514 33.4805 69.5261 33.5648 69.526C33.6197 69.5241 33.6745 69.5333 33.7257 69.5531C33.777 69.5729 33.8238 69.6028 33.8633 69.6412C33.9028 69.6795 33.9343 69.7255 33.9557 69.7763C33.9772 69.8272 33.9882 69.8818 33.9882 69.937Z" fill="white" stroke="#FDFDFD" stroke-width="0.5" stroke-linecap="round" stroke-linejoin="round"/>
<path id="Vector_21" d="M38.6077 68.2335C38.6105 68.3182 38.5881 68.4018 38.5434 68.4736C38.4986 68.5455 38.4336 68.6022 38.3565 68.6366C38.2794 68.671 38.1939 68.6815 38.1109 68.6668C38.0278 68.652 37.9511 68.6127 37.8904 68.5538C37.8298 68.4949 37.788 68.4192 37.7705 68.3363C37.7529 68.2534 37.7605 68.1672 37.792 68.0886C37.8236 68.01 37.8778 67.9427 37.9477 67.8953C38.0176 67.8479 38.1 67.8226 38.1843 67.8225C38.2392 67.8206 38.294 67.8298 38.3452 67.8496C38.3965 67.8694 38.4433 67.8993 38.4828 67.9377C38.5224 67.976 38.5538 68.022 38.5752 68.0728C38.5967 68.1237 38.6077 68.1783 38.6077 68.2335Z" fill="white" stroke="#FDFDFD" stroke-width="0.5" stroke-linecap="round" stroke-linejoin="round"/>
<path id="Vector_22" d="M35.577 68.7882C35.5798 68.8729 35.5574 68.9565 35.5127 69.0283C35.4679 69.1001 35.4029 69.1569 35.3258 69.1913C35.2487 69.2257 35.1632 69.2362 35.0802 69.2215C34.9971 69.2067 34.9204 69.1674 34.8597 69.1085C34.7991 69.0496 34.7573 68.9739 34.7398 68.891C34.7222 68.8081 34.7298 68.7219 34.7613 68.6433C34.7929 68.5647 34.8471 68.4974 34.917 68.45C34.9869 68.4026 35.0693 68.3773 35.1536 68.3772C35.2085 68.3753 35.2633 68.3845 35.3145 68.4043C35.3658 68.424 35.4126 68.454 35.4521 68.4924C35.4917 68.5307 35.5231 68.5767 35.5445 68.6275C35.566 68.6783 35.577 68.733 35.577 68.7882Z" fill="white" stroke="#FDFDFD" stroke-width="0.5" stroke-linecap="round" stroke-linejoin="round"/>
<path id="Vector_23" d="M36.9494 67.1649C36.9527 67.2502 36.9305 67.3344 36.8856 67.4069C36.8408 67.4794 36.7755 67.5367 36.698 67.5715C36.6205 67.6064 36.5344 67.6171 36.4507 67.6023C36.3671 67.5876 36.2898 67.548 36.2287 67.4887C36.1677 67.4295 36.1257 67.3532 36.1081 67.2697C36.0906 67.1862 36.0983 67.0994 36.1303 67.0204C36.1622 66.9413 36.217 66.8737 36.2875 66.8262C36.3581 66.7788 36.4411 66.7536 36.5261 66.7539C36.581 66.752 36.6357 66.7612 36.687 66.781C36.7383 66.8008 36.7851 66.8307 36.8246 66.8691C36.8641 66.9074 36.8955 66.9534 36.9169 67.0042C36.9384 67.0551 36.9494 67.1097 36.9494 67.1649Z" fill="white" stroke="#FDFDFD" stroke-width="0.5" stroke-linecap="round" stroke-linejoin="round"/>
<path id="Vector_24" d="M37.9717 65.2762C37.9745 65.3609 37.9521 65.4445 37.9074 65.5164C37.8626 65.5882 37.7976 65.6449 37.7205 65.6793C37.6434 65.7138 37.5579 65.7243 37.4749 65.7095C37.3918 65.6948 37.3151 65.6554 37.2544 65.5965C37.1938 65.5377 37.152 65.4619 37.1345 65.379C37.117 65.2962 37.1245 65.2099 37.156 65.1313C37.1876 65.0528 37.2418 64.9855 37.3117 64.9381C37.3816 64.8906 37.464 64.8653 37.5483 64.8652C37.6032 64.8633 37.658 64.8725 37.7093 64.8923C37.7606 64.9121 37.8073 64.942 37.8469 64.9804C37.8864 65.0188 37.9178 65.0647 37.9392 65.1156C37.9607 65.1664 37.9717 65.221 37.9717 65.2762Z" fill="white" stroke="#FDFDFD" stroke-width="0.5" stroke-linecap="round" stroke-linejoin="round"/>
<path id="Vector_25" d="M36.9944 70.1383C36.9972 70.223 36.9748 70.3066 36.9301 70.3784C36.8853 70.4502 36.8203 70.507 36.7432 70.5414C36.6662 70.5758 36.5806 70.5863 36.4976 70.5716C36.4145 70.5568 36.3378 70.5175 36.2771 70.4586C36.2165 70.3997 36.1747 70.324 36.1572 70.2411C36.1397 70.1582 36.1472 70.072 36.1787 69.9934C36.2103 69.9148 36.2645 69.8475 36.3344 69.8001C36.4043 69.7527 36.4867 69.7274 36.571 69.7273C36.6259 69.7254 36.6807 69.7346 36.732 69.7544C36.7833 69.7742 36.8301 69.8041 36.8696 69.8425C36.9091 69.8808 36.9405 69.9268 36.9619 69.9776C36.9834 70.0285 36.9944 70.0831 36.9944 70.1383Z" fill="white" stroke="#FDFDFD" stroke-width="0.5" stroke-linecap="round" stroke-linejoin="round"/>
<path id="Vector_26" d="M33.5257 64.9084C33.5289 64.9936 33.5068 65.0778 33.4621 65.1502C33.4174 65.2226 33.3521 65.2799 33.2747 65.3148C33.1974 65.3497 33.1114 65.3606 33.0278 65.346C32.9442 65.3314 32.8669 65.292 32.8058 65.2329C32.7446 65.1739 32.7025 65.0978 32.6847 65.0145C32.6669 64.9311 32.6743 64.8444 32.706 64.7653C32.7376 64.6862 32.7921 64.6185 32.8624 64.5707C32.9326 64.523 33.0155 64.4975 33.1003 64.4974C33.1554 64.4952 33.2103 64.5042 33.2619 64.5238C33.3134 64.5435 33.3604 64.5734 33.4002 64.6118C33.4399 64.6502 33.4715 64.6963 33.4931 64.7472C33.5146 64.7982 33.5257 64.853 33.5257 64.9084Z" fill="white" stroke="#FDFDFD" stroke-width="0.5" stroke-linecap="round" stroke-linejoin="round"/>
<path id="Vector_27" d="M67.5295 20.2788C67.552 20.3466 67.6072 20.4514 67.6644 20.4514C67.7544 20.4514 67.826 20.3219 67.826 20.1616C67.826 20.0013 67.7544 19.8719 67.6644 19.8719C67.6133 19.8719 67.5601 19.9644 67.5356 20.0198L66.9364 20.0013C66.9169 19.6226 66.8201 19.2518 66.6521 18.9122L67.4395 18.4231C67.4988 18.4724 67.6092 18.5423 67.6644 18.5094C67.7197 18.4765 67.7483 18.3039 67.6644 18.1457C67.5806 17.9875 67.4354 17.9094 67.3515 17.9587C67.3004 17.9875 67.3004 18.1046 67.3086 18.1642L66.4906 18.6101C66.2801 18.2935 66.0081 18.023 65.6909 17.8148L65.967 17.299C66.0365 17.3134 66.1552 17.3175 66.1838 17.2662C66.2124 17.2148 66.1531 17.0607 66.014 16.9805C65.875 16.9004 65.7298 16.8983 65.6848 16.9805C65.6582 17.0257 65.7114 17.1182 65.7482 17.1675L65.4312 17.6689C65.0938 17.4968 64.7249 17.3961 64.3473 17.373L64.3309 16.4483C64.4045 16.4236 64.5191 16.362 64.5191 16.2962C64.5191 16.1976 64.378 16.1174 64.2021 16.1174C64.0262 16.1174 63.8851 16.1976 63.8851 16.2962C63.8851 16.3558 63.9853 16.4133 64.0467 16.4401L64.0201 17.3792C63.6424 17.4023 63.2735 17.503 62.9362 17.6751L62.6274 17.1696C62.6723 17.1162 62.7357 17.0155 62.7071 16.9641C62.6785 16.9127 62.5128 16.888 62.3758 16.9641C62.2388 17.0401 62.1713 17.1696 62.2061 17.2497C62.2327 17.2949 62.339 17.2949 62.3983 17.2867L62.6826 17.8148C62.3655 18.0225 62.0941 18.2932 61.885 18.6101L61.0669 18.1683C61.0833 18.0923 61.0874 17.9628 61.0322 17.9299C60.9463 17.8806 60.8072 17.9649 60.7193 18.1169C60.6313 18.269 60.6293 18.4334 60.7193 18.4827C60.7684 18.5115 60.8706 18.4519 60.9238 18.4128L61.7193 18.906C61.5497 19.2452 61.4522 19.6161 61.433 19.9952L60.842 20.0137C60.8195 19.9459 60.7643 19.8411 60.705 19.8411C60.6457 19.8411 60.5434 19.9726 60.5434 20.1308C60.5434 20.289 60.617 20.4226 60.705 20.4226C60.7581 20.4226 60.8113 20.3301 60.8338 20.2726L61.433 20.2911C61.4525 20.6708 61.5499 21.0423 61.7193 21.3823L60.9299 21.8714C60.8727 21.82 60.7622 21.7501 60.705 21.783C60.6477 21.8159 60.6232 21.9885 60.705 22.1488C60.7868 22.3091 60.932 22.3851 61.0179 22.3358C61.0669 22.305 61.0669 22.1878 61.0588 22.1303L61.8768 21.6844C62.0859 22.0013 62.3573 22.272 62.6744 22.4797L62.3942 23.0016C62.3247 22.9872 62.2081 22.9831 62.1774 23.0345C62.1468 23.0859 62.2102 23.24 62.3472 23.3201C62.4842 23.4003 62.6335 23.4023 62.6785 23.3201C62.7051 23.2749 62.6519 23.1825 62.6151 23.1331L62.928 22.6214C63.2653 22.7936 63.6342 22.8943 64.0119 22.9174L64.0385 23.8483C63.9669 23.875 63.8503 23.9366 63.8503 24.0003C63.8503 24.099 63.9935 24.1791 64.1694 24.1791C64.3452 24.1791 64.4864 24.099 64.4864 24.0003C64.4864 23.9428 64.3841 23.8832 64.3227 23.8565L64.3493 22.9174C64.727 22.8943 65.0959 22.7936 65.4332 22.6214L65.7441 23.127C65.6971 23.1804 65.6357 23.2811 65.6643 23.3325C65.693 23.3838 65.8566 23.4085 65.9956 23.3325C66.1347 23.2564 66.2001 23.127 66.1633 23.0468C66.1265 22.9667 66.0304 22.9996 65.9711 23.0078L65.6868 22.4797C66.004 22.2715 66.276 22.001 66.4865 21.6844L67.3045 22.1262C67.2902 22.2022 67.284 22.3317 67.3413 22.3646C67.3986 22.3975 67.5663 22.3317 67.6522 22.1776C67.7381 22.0234 67.7422 21.8611 67.6522 21.8118C67.601 21.783 67.5008 21.8426 67.4477 21.8817L66.6521 21.3905C66.8199 21.0501 66.9166 20.6787 66.9364 20.2993L67.5295 20.2788Z" fill="white" stroke="#FDFDFD" stroke-width="0.5" stroke-linecap="round" stroke-linejoin="round"/>
<path id="Vector_28" d="M64.3946 18.0282C64.3971 18.0852 64.3825 18.1415 64.3528 18.1901C64.3231 18.2387 64.2796 18.2772 64.2279 18.3007C64.1762 18.3242 64.1187 18.3317 64.0628 18.3221C64.0069 18.3125 63.9551 18.2863 63.9141 18.2469C63.8731 18.2075 63.8448 18.1567 63.8328 18.1009C63.8208 18.0452 63.8257 17.9872 63.8468 17.9343C63.8679 17.8813 63.9043 17.836 63.9512 17.804C63.9982 17.772 64.0536 17.7549 64.1104 17.7549C64.147 17.7538 64.1834 17.76 64.2176 17.7732C64.2518 17.7864 64.283 17.8063 64.3094 17.8317C64.3359 17.8572 64.357 17.8876 64.3717 17.9214C64.3863 17.9551 64.3941 17.9914 64.3946 18.0282Z" fill="white" stroke="#FDFDFD" stroke-width="0.5" stroke-linecap="round" stroke-linejoin="round"/>
<path id="Vector_29" d="M62.6748 20.2311C62.6772 20.288 62.6627 20.3444 62.633 20.393C62.6032 20.4416 62.5597 20.4801 62.5081 20.5036C62.4564 20.5271 62.3989 20.5346 62.343 20.525C62.287 20.5154 62.2352 20.4892 62.1943 20.4498C62.1533 20.4104 62.1249 20.3595 62.1129 20.3038C62.1009 20.2481 62.1058 20.1901 62.1269 20.1371C62.148 20.0842 62.1844 20.0389 62.2314 20.0069C62.2784 19.9749 62.3338 19.9578 62.3905 19.9578C62.4271 19.9567 62.4636 19.9629 62.4977 19.9761C62.5319 19.9893 62.5631 20.0092 62.5896 20.0346C62.616 20.0601 62.6372 20.0905 62.6518 20.1242C62.6665 20.158 62.6743 20.1943 62.6748 20.2311Z" fill="white" stroke="#FDFDFD" stroke-width="0.5" stroke-linecap="round" stroke-linejoin="round"/>
<path id="Vector_30" d="M63.9486 19.5179C63.9515 19.5749 63.9373 19.6315 63.9078 19.6803C63.8784 19.7292 63.835 19.768 63.7834 19.7918C63.7318 19.8157 63.6742 19.8234 63.6182 19.8141C63.5621 19.8047 63.5101 19.7787 63.4689 19.7394C63.4277 19.7001 63.3992 19.6493 63.387 19.5935C63.3749 19.5378 63.3796 19.4796 63.4006 19.4266C63.4217 19.3735 63.458 19.328 63.505 19.296C63.552 19.2639 63.6075 19.2467 63.6643 19.2467C63.7378 19.245 63.8089 19.2726 63.8621 19.3234C63.9154 19.3742 63.9465 19.4441 63.9486 19.5179Z" fill="white" stroke="#FDFDFD" stroke-width="0.5" stroke-linecap="round" stroke-linejoin="round"/>
<path id="Vector_31" d="M63.2839 21.8914C63.2867 21.9485 63.2725 22.005 63.2431 22.0539C63.2136 22.1027 63.1703 22.1415 63.1187 22.1654C63.067 22.1892 63.0095 22.197 62.9534 22.1876C62.8974 22.1783 62.8454 22.1523 62.8042 22.113C62.763 22.0736 62.7345 22.0228 62.7223 21.9671C62.7101 21.9113 62.7149 21.8531 62.7359 21.8001C62.7569 21.7471 62.7933 21.7016 62.8403 21.6695C62.8873 21.6374 62.9428 21.6203 62.9996 21.6202C63.073 21.6185 63.1441 21.6461 63.1974 21.6969C63.2506 21.7478 63.2817 21.8177 63.2839 21.8914Z" fill="white" stroke="#FDFDFD" stroke-width="0.5" stroke-linecap="round" stroke-linejoin="round"/>
<path id="Vector_32" d="M66.3885 20.751C66.391 20.8079 66.3764 20.8643 66.3467 20.9129C66.317 20.9615 66.2735 21 66.2218 21.0235C66.1701 21.047 66.1126 21.0545 66.0567 21.0449C66.0008 21.0353 65.949 21.0091 65.908 20.9697C65.867 20.9303 65.8387 20.8794 65.8267 20.8237C65.8147 20.768 65.8195 20.7099 65.8407 20.657C65.8618 20.6041 65.8981 20.5588 65.9451 20.5268C65.9921 20.4948 66.0475 20.4777 66.1043 20.4777C66.1409 20.4766 66.1773 20.4828 66.2115 20.496C66.2457 20.5092 66.2769 20.5291 66.3033 20.5545C66.3298 20.58 66.3509 20.6104 66.3656 20.6441C66.3802 20.6779 66.388 20.7142 66.3885 20.751Z" fill="white" stroke="#FDFDFD" stroke-width="0.5" stroke-linecap="round" stroke-linejoin="round"/>
<path id="Vector_33" d="M64.3518 21.1208C64.3543 21.1778 64.3397 21.2342 64.31 21.2828C64.2803 21.3313 64.2368 21.3698 64.1851 21.3934C64.1335 21.4169 64.0759 21.4243 64.02 21.4147C63.9641 21.4052 63.9123 21.379 63.8713 21.3396C63.8303 21.3001 63.802 21.2493 63.79 21.1936C63.778 21.1379 63.7829 21.0798 63.804 21.0269C63.8251 20.974 63.8615 20.9286 63.9084 20.8967C63.9554 20.8647 64.0108 20.8476 64.0676 20.8475C64.1042 20.8464 64.1406 20.8527 64.1748 20.8659C64.209 20.8791 64.2402 20.899 64.2667 20.9244C64.2931 20.9498 64.3143 20.9803 64.3289 21.014C64.3435 21.0477 64.3513 21.0841 64.3518 21.1208Z" fill="white" stroke="#FDFDFD" stroke-width="0.5" stroke-linecap="round" stroke-linejoin="round"/>
<path id="Vector_34" d="M65.2741 20.0318C65.277 20.0893 65.2626 20.1464 65.2328 20.1956C65.2031 20.2448 65.1593 20.2839 65.1072 20.3078C65.0551 20.3318 64.997 20.3395 64.9405 20.3299C64.884 20.3203 64.8316 20.2939 64.7902 20.2541C64.7488 20.2142 64.7202 20.1629 64.7082 20.1066C64.6962 20.0503 64.7013 19.9916 64.7228 19.9382C64.7443 19.8849 64.7812 19.8392 64.8288 19.8071C64.8764 19.7751 64.9325 19.7582 64.9898 19.7585C65.0264 19.7577 65.0627 19.7641 65.0968 19.7774C65.1308 19.7907 65.1619 19.8106 65.1883 19.836C65.2147 19.8614 65.2359 19.8917 65.2506 19.9253C65.2653 19.9589 65.2733 19.9951 65.2741 20.0318Z" fill="white" stroke="#FDFDFD" stroke-width="0.5" stroke-linecap="round" stroke-linejoin="round"/>
<path id="Vector_35" d="M65.967 18.7616C65.9698 18.8184 65.9557 18.8747 65.9266 18.9234C65.8974 18.9721 65.8544 19.0109 65.8031 19.0349C65.7519 19.0589 65.6946 19.067 65.6388 19.0581C65.5829 19.0493 65.531 19.0239 65.4895 18.9852C65.4481 18.9465 65.4191 18.8963 65.4063 18.8409C65.3934 18.7856 65.3972 18.7276 65.4173 18.6745C65.4374 18.6214 65.4728 18.5755 65.519 18.5427C65.5652 18.5099 65.62 18.4917 65.6766 18.4904C65.7134 18.4887 65.7503 18.4945 65.7849 18.5073C65.8195 18.5201 65.8513 18.5396 65.8783 18.5649C65.9054 18.5901 65.9271 18.6205 65.9423 18.6543C65.9576 18.6881 65.9659 18.7246 65.967 18.7616Z" fill="white" stroke="#FDFDFD" stroke-width="0.5" stroke-linecap="round" stroke-linejoin="round"/>
<path id="Vector_36" d="M65.3048 22.0292C65.3076 22.0868 65.2932 22.1438 65.2635 22.193C65.2337 22.2422 65.1899 22.2813 65.1378 22.3053C65.0857 22.3292 65.0276 22.3369 64.9711 22.3273C64.9146 22.3177 64.8623 22.2913 64.8209 22.2515C64.7794 22.2117 64.7509 22.1603 64.7389 22.104C64.7268 22.0477 64.7319 21.9891 64.7534 21.9357C64.7749 21.8823 64.8119 21.8366 64.8595 21.8046C64.9071 21.7725 64.9632 21.7556 65.0205 21.7559C65.057 21.7551 65.0933 21.7615 65.1274 21.7748C65.1615 21.7881 65.1926 21.808 65.219 21.8334C65.2454 21.8588 65.2665 21.8891 65.2813 21.9227C65.296 21.9564 65.304 21.9925 65.3048 22.0292Z" fill="white" stroke="#FDFDFD" stroke-width="0.5" stroke-linecap="round" stroke-linejoin="round"/>
<path id="Vector_37" d="M62.9734 18.5152C62.9758 18.5724 62.9611 18.629 62.9311 18.6777C62.9011 18.7264 62.8573 18.765 62.8052 18.7883C62.7532 18.8116 62.6953 18.8187 62.6392 18.8086C62.5831 18.7985 62.5314 18.7717 62.4906 18.7317C62.4499 18.6916 62.422 18.6402 62.4107 18.5841C62.3994 18.528 62.4052 18.4697 62.4272 18.4169C62.4493 18.3641 62.4867 18.3192 62.5344 18.288C62.5822 18.2568 62.6383 18.2407 62.6952 18.2419C62.7681 18.2413 62.8382 18.2698 62.8903 18.321C62.9424 18.3722 62.9723 18.442 62.9734 18.5152Z" fill="white" stroke="#FDFDFD" stroke-width="0.5" stroke-linecap="round" stroke-linejoin="round"/>
<path id="Vector_38" d="M107.959 65.9112C107.982 65.979 108.037 66.0838 108.096 66.0838C108.155 66.0838 108.258 65.9543 108.258 65.7941C108.258 65.6338 108.186 65.5043 108.096 65.5043C108.043 65.5043 107.99 65.5968 107.967 65.6523L107.368 65.6338C107.349 65.2541 107.251 64.8825 107.082 64.5426L107.871 64.0555C107.93 64.1049 108.041 64.1747 108.096 64.1419C108.151 64.109 108.178 63.9364 108.096 63.7781C108.014 63.6199 107.869 63.5418 107.783 63.5911C107.734 63.6199 107.734 63.737 107.742 63.7966L106.924 64.2426C106.715 63.9256 106.444 63.6549 106.127 63.4473L106.407 62.9253C106.476 62.9397 106.593 62.9438 106.624 62.8924C106.654 62.8411 106.593 62.6869 106.454 62.6068C106.315 62.5266 106.168 62.5246 106.123 62.6068C106.096 62.652 106.149 62.7445 106.186 62.7938L105.873 63.3055C105.536 63.1334 105.167 63.0326 104.789 63.0096L104.763 62.0787C104.834 62.0519 104.951 61.9923 104.951 61.9266C104.951 61.8279 104.808 61.7478 104.634 61.7478C104.46 61.7478 104.315 61.8279 104.315 61.9266C104.315 61.9862 104.417 62.0437 104.478 62.0704L104.452 63.0096C104.074 63.0326 103.705 63.1334 103.368 63.3055L103.057 62.8C103.104 62.7465 103.165 62.6458 103.137 62.5945C103.108 62.5431 102.944 62.5205 102.805 62.5945C102.666 62.6684 102.601 62.8 102.638 62.8801C102.664 62.9253 102.771 62.9253 102.83 62.9171L103.114 63.4452C102.797 63.6534 102.525 63.9239 102.315 64.2405L101.497 63.7987C101.511 63.7226 101.517 63.5932 101.46 63.5603C101.402 63.5274 101.235 63.5952 101.149 63.7473C101.063 63.8994 101.059 64.0638 101.149 64.1131C101.2 64.1419 101.3 64.0823 101.353 64.0432L102.149 64.5364C101.981 64.8761 101.884 65.2468 101.865 65.6255L101.274 65.644C101.249 65.5762 101.194 65.4714 101.137 65.4714C101.047 65.4714 100.975 65.6009 100.975 65.7612C100.975 65.9215 101.047 66.0509 101.137 66.0509C101.19 66.0509 101.243 65.9585 101.265 65.903L101.865 65.9215C101.884 66.3009 101.981 66.6722 102.149 67.0127L101.347 67.5079C101.288 67.4586 101.178 67.3887 101.122 67.4216C101.036 67.4709 101.04 67.6271 101.122 67.7853C101.204 67.9436 101.351 68.0217 101.435 67.9723C101.486 67.9436 101.486 67.8264 101.478 67.7668L102.296 67.3209C102.507 67.6375 102.779 67.908 103.096 68.1162L102.824 68.632C102.754 68.6176 102.636 68.6135 102.607 68.6649C102.578 68.7162 102.638 68.8704 102.777 68.9505C102.916 69.0306 103.063 69.0327 103.106 68.9505C103.133 68.9053 103.079 68.8128 103.043 68.7635L103.358 68.2518C103.695 68.4239 104.064 68.5246 104.441 68.5477L104.468 69.4786C104.394 69.5054 104.28 69.5649 104.28 69.6307C104.28 69.7293 104.421 69.8095 104.597 69.8095C104.773 69.8095 104.914 69.7293 104.914 69.6307C104.914 69.5711 104.814 69.5136 104.752 69.4869L104.779 68.5477C105.157 68.5246 105.525 68.4239 105.863 68.2518L106.174 68.7573C106.127 68.8108 106.063 68.9115 106.094 68.9628C106.125 69.0142 106.286 69.0368 106.423 68.9628C106.56 68.8889 106.638 68.7573 106.593 68.6772C106.566 68.632 106.46 68.632 106.401 68.6402L106.116 68.1121C106.433 67.9044 106.705 67.6338 106.914 67.3168L107.732 67.7586C107.716 67.8347 107.712 67.9641 107.767 67.997C107.853 68.0463 107.992 67.9621 108.08 67.81C108.168 67.6579 108.17 67.4935 108.08 67.4442C108.031 67.4154 107.928 67.475 107.875 67.5141L107.08 67.0209C107.249 66.6817 107.347 66.3108 107.366 65.9317L107.959 65.9112Z" fill="white" stroke="#FDFDFD" stroke-width="0.5" stroke-linecap="round" stroke-linejoin="round"/>
<path id="Vector_39" d="M104.824 63.661C104.827 63.7184 104.813 63.7754 104.783 63.8246C104.753 63.8737 104.71 63.9128 104.658 63.9368C104.606 63.9608 104.548 63.9686 104.491 63.9592C104.435 63.9498 104.382 63.9236 104.341 63.884C104.299 63.8444 104.271 63.7932 104.258 63.737C104.246 63.6809 104.251 63.6223 104.272 63.5689C104.293 63.5155 104.33 63.4697 104.377 63.4374C104.425 63.4051 104.481 63.3878 104.538 63.3877C104.574 63.3866 104.611 63.3928 104.645 63.406C104.68 63.4192 104.711 63.439 104.738 63.4644C104.764 63.4898 104.786 63.5203 104.8 63.554C104.815 63.5878 104.823 63.6241 104.824 63.661Z" fill="white" stroke="#FDFDFD" stroke-width="0.5" stroke-linecap="round" stroke-linejoin="round"/>
<path id="Vector_40" d="M103.106 65.864C103.109 65.9215 103.095 65.9785 103.065 66.0277C103.035 66.0769 102.991 66.1161 102.939 66.14C102.887 66.1639 102.829 66.1716 102.773 66.162C102.716 66.1524 102.664 66.126 102.622 66.0862C102.581 66.0464 102.552 65.995 102.54 65.9387C102.528 65.8824 102.533 65.8238 102.555 65.7704C102.576 65.717 102.613 65.6713 102.661 65.6393C102.709 65.6073 102.765 65.5903 102.822 65.5906C102.858 65.5898 102.895 65.5962 102.929 65.6095C102.963 65.6228 102.994 65.6427 103.02 65.6681C103.047 65.6935 103.068 65.7239 103.083 65.7575C103.097 65.7911 103.105 65.8273 103.106 65.864Z" fill="white" stroke="#FDFDFD" stroke-width="0.5" stroke-linecap="round" stroke-linejoin="round"/>
<path id="Vector_41" d="M104.381 65.155C104.384 65.2125 104.37 65.2698 104.341 65.3192C104.311 65.3687 104.267 65.4081 104.215 65.4324C104.163 65.4567 104.105 65.4646 104.049 65.4553C103.992 65.446 103.939 65.4197 103.898 65.38C103.856 65.3403 103.827 65.2889 103.815 65.2326C103.803 65.1762 103.808 65.1175 103.829 65.064C103.851 65.0105 103.888 64.9647 103.935 64.9326C103.983 64.9004 104.039 64.8834 104.097 64.8837C104.17 64.8826 104.241 64.9103 104.294 64.9611C104.347 65.0118 104.378 65.0814 104.381 65.155Z" fill="white" stroke="#FDFDFD" stroke-width="0.5" stroke-linecap="round" stroke-linejoin="round"/>
<path id="Vector_42" d="M103.716 67.5244C103.718 67.5814 103.704 67.638 103.675 67.6868C103.645 67.7356 103.602 67.7745 103.55 67.7983C103.499 67.8221 103.441 67.8299 103.385 67.8206C103.329 67.8112 103.277 67.7852 103.236 67.7459C103.195 67.7066 103.166 67.6558 103.154 67.6C103.142 67.5442 103.146 67.4861 103.168 67.433C103.189 67.38 103.225 67.3345 103.272 67.3024C103.319 67.2704 103.374 67.2532 103.431 67.2531C103.505 67.2515 103.576 67.2791 103.629 67.3299C103.682 67.3807 103.713 67.4506 103.716 67.5244Z" fill="white" stroke="#FDFDFD" stroke-width="0.5" stroke-linecap="round" stroke-linejoin="round"/>
<path id="Vector_43" d="M106.82 66.3818C106.823 66.4393 106.809 66.4962 106.779 66.5454C106.75 66.5946 106.706 66.6337 106.654 66.6577C106.602 66.6817 106.544 66.6894 106.487 66.68C106.431 66.6706 106.379 66.6444 106.337 66.6048C106.296 66.5652 106.267 66.514 106.255 66.4578C106.242 66.4017 106.247 66.3431 106.268 66.2897C106.29 66.2363 106.326 66.1905 106.374 66.1582C106.421 66.1259 106.477 66.1086 106.534 66.1085C106.571 66.1074 106.607 66.1136 106.642 66.1268C106.676 66.14 106.707 66.1598 106.734 66.1853C106.76 66.2107 106.782 66.2411 106.797 66.2749C106.811 66.3086 106.82 66.3449 106.82 66.3818Z" fill="white" stroke="#FDFDFD" stroke-width="0.5" stroke-linecap="round" stroke-linejoin="round"/>
<path id="Vector_44" d="M104.784 66.7537C104.786 66.8112 104.772 66.8683 104.742 66.9175C104.713 66.9667 104.669 67.0058 104.617 67.0298C104.565 67.0537 104.507 67.0614 104.45 67.0518C104.393 67.0422 104.341 67.0158 104.3 66.976C104.258 66.9362 104.23 66.8848 104.218 66.8285C104.206 66.7722 104.211 66.7135 104.232 66.6602C104.254 66.6068 104.291 66.5611 104.338 66.5291C104.386 66.497 104.442 66.4801 104.499 66.4804C104.536 66.4796 104.572 66.486 104.606 66.4993C104.64 66.5126 104.671 66.5325 104.698 66.5579C104.724 66.5833 104.745 66.6136 104.76 66.6472C104.775 66.6808 104.783 66.717 104.784 66.7537Z" fill="white" stroke="#FDFDFD" stroke-width="0.5" stroke-linecap="round" stroke-linejoin="round"/>
<path id="Vector_45" d="M105.704 65.6647C105.706 65.7216 105.692 65.778 105.662 65.8266C105.632 65.8751 105.589 65.9137 105.537 65.9372C105.485 65.9607 105.428 65.9682 105.372 65.9586C105.316 65.949 105.264 65.9228 105.223 65.8834C105.182 65.844 105.154 65.7931 105.142 65.7374C105.13 65.6817 105.135 65.6236 105.156 65.5707C105.177 65.5178 105.213 65.4725 105.26 65.4405C105.307 65.4085 105.363 65.3914 105.419 65.3914C105.456 65.3903 105.492 65.3965 105.527 65.4097C105.561 65.4229 105.592 65.4428 105.619 65.4682C105.645 65.4936 105.666 65.5241 105.681 65.5578C105.695 65.5916 105.703 65.6279 105.704 65.6647Z" fill="white" stroke="#FDFDFD" stroke-width="0.5" stroke-linecap="round" stroke-linejoin="round"/>
<path id="Vector_46" d="M106.393 64.3947C106.396 64.4522 106.382 64.5091 106.352 64.5583C106.322 64.6075 106.279 64.6466 106.227 64.6705C106.175 64.6945 106.117 64.7023 106.06 64.6929C106.004 64.6835 105.951 64.6573 105.91 64.6177C105.868 64.5781 105.84 64.5269 105.827 64.4707C105.815 64.4146 105.82 64.356 105.841 64.3026C105.862 64.2492 105.899 64.2034 105.946 64.1711C105.994 64.1388 106.05 64.1215 106.107 64.1214C106.181 64.1197 106.252 64.1476 106.306 64.1988C106.36 64.25 106.391 64.3204 106.393 64.3947Z" fill="white" stroke="#FDFDFD" stroke-width="0.5" stroke-linecap="round" stroke-linejoin="round"/>
<path id="Vector_47" d="M105.734 67.6621C105.737 67.7191 105.722 67.7754 105.693 67.824C105.663 67.8726 105.619 67.9111 105.568 67.9346C105.516 67.9582 105.459 67.9656 105.403 67.956C105.347 67.9464 105.295 67.9202 105.254 67.8808C105.213 67.8414 105.185 67.7906 105.173 67.7349C105.161 67.6791 105.165 67.6211 105.187 67.5682C105.208 67.5152 105.244 67.4699 105.291 67.4379C105.338 67.406 105.393 67.3888 105.45 67.3888C105.487 67.3877 105.523 67.3939 105.557 67.4071C105.592 67.4203 105.623 67.4402 105.649 67.4656C105.676 67.4911 105.697 67.5216 105.711 67.5553C105.726 67.589 105.734 67.6253 105.734 67.6621Z" fill="white" stroke="#FDFDFD" stroke-width="0.5" stroke-linecap="round" stroke-linejoin="round"/>
<path id="Vector_48" d="M103.405 64.1479C103.408 64.2054 103.394 64.2623 103.364 64.3115C103.334 64.3607 103.291 64.3998 103.239 64.4238C103.187 64.4478 103.129 64.4556 103.072 64.4461C103.016 64.4367 102.963 64.4105 102.922 64.3709C102.881 64.3313 102.852 64.2801 102.84 64.224C102.827 64.1678 102.832 64.1092 102.853 64.0558C102.874 64.0024 102.911 63.9566 102.958 63.9243C103.006 63.892 103.062 63.8747 103.119 63.8746C103.156 63.8735 103.192 63.8798 103.226 63.8929C103.261 63.9061 103.292 63.926 103.319 63.9514C103.345 63.9768 103.367 64.0072 103.381 64.041C103.396 64.0747 103.404 64.1111 103.405 64.1479Z" fill="white" stroke="#FDFDFD" stroke-width="0.5" stroke-linecap="round" stroke-linejoin="round"/>
<path id="Vector_49" d="M32.816 56.3906C32.7618 56.3906 32.7098 56.369 32.6714 56.3304C32.6331 56.2919 32.6115 56.2396 32.6115 56.1851V54.8453C32.6115 54.7908 32.6331 54.7385 32.6714 54.7C32.7098 54.6614 32.7618 54.6398 32.816 54.6398C32.8703 54.6398 32.9223 54.6614 32.9606 54.7C32.999 54.7385 33.0205 54.7908 33.0205 54.8453V56.1851C33.0205 56.2396 32.999 56.2919 32.9606 56.3304C32.9223 56.369 32.8703 56.3906 32.816 56.3906Z" fill="#FDFDFD"/>
<path id="Vector_50" d="M33.4831 55.7214H32.1497C32.0955 55.7214 32.0434 55.6997 32.0051 55.6611C31.9667 55.6225 31.9452 55.5701 31.9452 55.5155C31.9452 55.4609 31.9667 55.4085 32.0051 55.3699C32.0434 55.3313 32.0955 55.3096 32.1497 55.3096H33.4831C33.5373 55.3096 33.5894 55.3313 33.6277 55.3699C33.6661 55.4085 33.6876 55.4609 33.6876 55.5155C33.6876 55.5701 33.6661 55.6225 33.6277 55.6611C33.5894 55.6997 33.5373 55.7214 33.4831 55.7214Z" fill="#FDFDFD"/>
<path id="Vector_51" d="M28.1944 30.021C28.127 30.0211 28.0623 29.9943 28.0144 29.9465C27.9665 29.8988 27.9393 29.834 27.9388 29.7662V28.0996C27.9445 28.0357 27.9738 27.9763 28.0209 27.933C28.068 27.8897 28.1296 27.8657 28.1934 27.8657C28.2572 27.8657 28.3188 27.8897 28.3659 27.933C28.413 27.9763 28.4423 28.0357 28.448 28.0996V29.7662C28.4475 29.8336 28.4206 29.8982 28.3731 29.9458C28.3257 29.9935 28.2615 30.0205 28.1944 30.021Z" fill="#FDFDFD"/>
<path id="Vector_52" d="M29.0224 29.1888H27.3638C27.3002 29.1831 27.241 29.1536 27.198 29.1063C27.1549 29.059 27.131 28.9971 27.131 28.933C27.131 28.8688 27.1549 28.807 27.198 28.7596C27.241 28.7123 27.3002 28.6829 27.3638 28.6771H29.0224C29.0859 28.6829 29.1451 28.7123 29.1882 28.7596C29.2313 28.807 29.2551 28.8688 29.2551 28.933C29.2551 28.9971 29.2313 29.059 29.1882 29.1063C29.1451 29.1536 29.0859 29.1831 29.0224 29.1888Z" fill="#FDFDFD"/>
<path id="Vector_53" d="M101.708 22.4669C101.653 22.4669 101.601 22.4453 101.563 22.4067C101.525 22.3682 101.503 22.3159 101.503 22.2614V20.9216C101.503 20.8671 101.525 20.8148 101.563 20.7763C101.601 20.7377 101.653 20.7161 101.708 20.7161C101.762 20.7161 101.814 20.7377 101.852 20.7763C101.89 20.8148 101.912 20.8671 101.912 20.9216V22.2614C101.912 22.3159 101.89 22.3682 101.852 22.4067C101.814 22.4453 101.762 22.4669 101.708 22.4669Z" fill="#FDFDFD"/>
<path id="Vector_54" d="M102.37 21.7978H101.041C100.987 21.7978 100.935 21.7761 100.896 21.7375C100.858 21.6989 100.836 21.6465 100.836 21.5919C100.836 21.5373 100.858 21.4849 100.896 21.4463C100.935 21.4077 100.987 21.386 101.041 21.386H102.37C102.424 21.386 102.476 21.4077 102.515 21.4463C102.553 21.4849 102.575 21.5373 102.575 21.5919C102.575 21.6465 102.553 21.6989 102.515 21.7375C102.476 21.7761 102.424 21.7978 102.37 21.7978Z" fill="#FDFDFD"/>
<path id="Vector_55" d="M55.3533 17.6686C55.299 17.6686 55.247 17.647 55.2086 17.6084C55.1703 17.5699 55.1487 17.5176 55.1487 17.4631V16.1274C55.1487 16.0729 55.1703 16.0206 55.2086 15.9821C55.247 15.9435 55.299 15.9219 55.3533 15.9219C55.4075 15.9219 55.4595 15.9435 55.4979 15.9821C55.5362 16.0206 55.5578 16.0729 55.5578 16.1274V17.4631C55.5578 17.5176 55.5362 17.5699 55.4979 17.6084C55.4595 17.647 55.4075 17.6686 55.3533 17.6686Z" fill="#FDFDFD"/>
<path id="Vector_56" d="M56.0199 17.0034H54.6865C54.6323 17.0034 54.5802 16.9817 54.5419 16.9431C54.5035 16.9045 54.482 16.8521 54.482 16.7975C54.482 16.7429 54.5035 16.6905 54.5419 16.6519C54.5802 16.6132 54.6323 16.5916 54.6865 16.5916H56.0199C56.0742 16.5916 56.1262 16.6132 56.1645 16.6519C56.2029 16.6905 56.2244 16.7429 56.2244 16.7975C56.2244 16.8521 56.2029 16.9045 56.1645 16.9431C56.1262 16.9817 56.0742 17.0034 56.0199 17.0034Z" fill="#FDFDFD"/>
<path id="Vector_57" d="M27.4233 49.8762C27.369 49.8762 27.317 49.8546 27.2787 49.816C27.2403 49.7775 27.2188 49.7252 27.2188 49.6707V48.3309C27.2188 48.2764 27.2403 48.2241 27.2787 48.1856C27.317 48.147 27.369 48.1254 27.4233 48.1254C27.4775 48.1254 27.5295 48.147 27.5679 48.1856C27.6062 48.2241 27.6278 48.2764 27.6278 48.3309V49.6707C27.6278 49.7252 27.6062 49.7775 27.5679 49.816C27.5295 49.8546 27.4775 49.8762 27.4233 49.8762Z" fill="#FDFDFD"/>
<path id="Vector_58" d="M28.09 49.2073H26.7566C26.7023 49.2073 26.6503 49.1856 26.612 49.1469C26.5736 49.1083 26.5521 49.0559 26.5521 49.0013C26.5521 48.9467 26.5736 48.8943 26.612 48.8557C26.6503 48.8171 26.7023 48.7954 26.7566 48.7954H28.09C28.1442 48.7954 28.1962 48.8171 28.2346 48.8557C28.2729 48.8943 28.2945 48.9467 28.2945 49.0013C28.2945 49.0559 28.2729 49.1083 28.2346 49.1469C28.1962 49.1856 28.1442 49.2073 28.09 49.2073Z" fill="#FDFDFD"/>
<path id="Vector_59" d="M44.052 84.3752C43.9977 84.3752 43.9457 84.3536 43.9074 84.315C43.869 84.2765 43.8475 84.2242 43.8475 84.1697V82.8299C43.8475 82.7754 43.869 82.7231 43.9074 82.6846C43.9457 82.646 43.9977 82.6244 44.052 82.6244C44.1062 82.6244 44.1582 82.646 44.1966 82.6846C44.2349 82.7231 44.2565 82.7754 44.2565 82.8299V84.1697C44.2565 84.2242 44.2349 84.2765 44.1966 84.315C44.1582 84.3536 44.1062 84.3752 44.052 84.3752Z" fill="#FDFDFD"/>
<path id="Vector_60" d="M44.7188 83.7062H43.3833C43.3291 83.7062 43.2771 83.6845 43.2387 83.6458C43.2004 83.6072 43.1788 83.5548 43.1788 83.5002C43.1788 83.4456 43.2004 83.3932 43.2387 83.3546C43.2771 83.316 43.3291 83.2943 43.3833 83.2943H44.7188C44.773 83.2943 44.8251 83.316 44.8634 83.3546C44.9018 83.3932 44.9233 83.4456 44.9233 83.5002C44.9233 83.5548 44.9018 83.6072 44.8634 83.6458C44.8251 83.6845 44.773 83.7062 44.7188 83.7062Z" fill="#FDFDFD"/>
<path id="Vector_61" d="M98.1613 82.2216C98.1071 82.2216 98.055 82.1999 98.0167 82.1614C97.9783 82.1228 97.9568 82.0706 97.9568 82.0161V80.6762C97.9568 80.6217 97.9783 80.5694 98.0167 80.5309C98.055 80.4924 98.1071 80.4707 98.1613 80.4707C98.2155 80.4707 98.2676 80.4924 98.3059 80.5309C98.3443 80.5694 98.3658 80.6217 98.3658 80.6762V82.0161C98.3658 82.0706 98.3443 82.1228 98.3059 82.1614C98.2676 82.1999 98.2155 82.2216 98.1613 82.2216Z" fill="#FDFDFD"/>
<path id="Vector_62" d="M98.828 81.5526H97.4946C97.4404 81.5526 97.3883 81.5309 97.35 81.4923C97.3116 81.4537 97.2901 81.4013 97.2901 81.3467C97.2901 81.2921 97.3116 81.2397 97.35 81.2011C97.3883 81.1624 97.4404 81.1407 97.4946 81.1407H98.828C98.8823 81.1407 98.9343 81.1624 98.9726 81.2011C99.011 81.2397 99.0325 81.2921 99.0325 81.3467C99.0325 81.4013 99.011 81.4537 98.9726 81.4923C98.9343 81.5309 98.8823 81.5526 98.828 81.5526Z" fill="#FDFDFD"/>
<path id="Vector_63" d="M29.9327 78.463C29.8784 78.463 29.8264 78.4413 29.788 78.4028C29.7497 78.3643 29.7281 78.312 29.7281 78.2575V76.9156C29.7281 76.8611 29.7497 76.8088 29.788 76.7703C29.8264 76.7317 29.8784 76.7101 29.9327 76.7101C29.9869 76.7101 30.0389 76.7317 30.0773 76.7703C30.1156 76.8088 30.1372 76.8611 30.1372 76.9156V78.2575C30.1372 78.312 30.1156 78.3643 30.0773 78.4028C30.0389 78.4413 29.9869 78.463 29.9327 78.463Z" fill="#FDFDFD"/>
<path id="Vector_64" d="M30.5994 77.794H29.266C29.2117 77.794 29.1597 77.7724 29.1214 77.7337C29.083 77.6951 29.0615 77.6427 29.0615 77.5881C29.0615 77.5335 29.083 77.4811 29.1214 77.4425C29.1597 77.4039 29.2117 77.3822 29.266 77.3822H30.5994C30.6536 77.3822 30.7056 77.4039 30.744 77.4425C30.7823 77.4811 30.8039 77.5335 30.8039 77.5881C30.8039 77.6427 30.7823 77.6951 30.744 77.7337C30.7056 77.7724 30.6536 77.794 30.5994 77.794Z" fill="#FDFDFD"/>
<path id="Vector_65" d="M37.4237 59.0456C37.2752 59.0456 37.13 59.0013 37.0065 58.9183C36.883 58.8354 36.7868 58.7175 36.7301 58.5795C36.6733 58.4416 36.6586 58.2899 36.6877 58.1435C36.7169 57.9972 36.7885 57.8628 36.8937 57.7574C36.9989 57.652 37.1328 57.5803 37.2785 57.5515C37.4243 57.5226 37.5752 57.5378 37.7124 57.5952C37.8495 57.6526 37.9665 57.7496 38.0488 57.8739C38.131 57.9982 38.1747 58.1442 38.1743 58.2935C38.1737 58.4931 38.0944 58.6844 37.9537 58.8254C37.813 58.9664 37.6224 59.0456 37.4237 59.0456ZM37.4237 57.9503C37.3562 57.9503 37.2901 57.9704 37.234 58.0081C37.1778 58.0458 37.134 58.0994 37.1082 58.1621C37.0823 58.2248 37.0756 58.2938 37.0887 58.3604C37.1019 58.427 37.1344 58.4881 37.1822 58.5361C37.23 58.5841 37.2908 58.6168 37.3571 58.6301C37.4233 58.6433 37.492 58.6365 37.5544 58.6105C37.6168 58.5845 37.6702 58.5406 37.7077 58.4841C37.7452 58.4277 37.7652 58.3613 37.7652 58.2935C37.7658 58.2481 37.7573 58.203 37.7404 58.1609C37.7235 58.1188 37.6984 58.0804 37.6667 58.0481C37.6349 58.0158 37.5971 57.9902 37.5554 57.9727C37.5137 57.9552 37.4689 57.9462 37.4237 57.9462V57.9503Z" fill="#FDFDFD"/>
<path id="Vector_66" d="M77.3708 21.1456C77.2536 21.1452 77.1391 21.1099 77.0419 21.0442C76.9446 20.9785 76.8689 20.8852 76.8243 20.7763C76.7798 20.6674 76.7683 20.5476 76.7914 20.4322C76.8145 20.3167 76.8712 20.2107 76.9542 20.1276C77.0372 20.0444 77.1429 19.9879 77.2579 19.965C77.3729 19.9422 77.492 19.9541 77.6003 19.9993C77.7085 20.0445 77.8011 20.1208 77.8661 20.2188C77.9312 20.3168 77.9659 20.4319 77.9659 20.5497C77.9659 20.6281 77.9505 20.7058 77.9206 20.7782C77.8907 20.8506 77.8468 20.9164 77.7915 20.9718C77.7362 21.0272 77.6706 21.071 77.5984 21.1008C77.5262 21.1307 77.4489 21.1459 77.3708 21.1456ZM77.3708 20.2784C77.3174 20.2784 77.2652 20.2943 77.2208 20.3241C77.1764 20.3539 77.1418 20.3963 77.1214 20.4459C77.101 20.4954 77.0956 20.55 77.1061 20.6026C77.1165 20.6552 77.1422 20.7035 77.1799 20.7415C77.2177 20.7794 77.2658 20.8053 77.3182 20.8157C77.3705 20.8262 77.4248 20.8208 77.4741 20.8003C77.5235 20.7798 77.5656 20.745 77.5953 20.7004C77.6249 20.6558 77.6408 20.6033 77.6408 20.5497C77.6402 20.4779 77.6116 20.4092 77.5611 20.3585C77.5106 20.3077 77.4423 20.279 77.3708 20.2784Z" fill="#FDFDFD"/>
<path id="Vector_67" d="M99.1859 63.2891C99.0375 63.2891 98.8924 63.2449 98.7689 63.162C98.6455 63.0791 98.5493 62.9614 98.4925 62.8235C98.4357 62.6857 98.4208 62.5341 98.4498 62.3878C98.4787 62.2415 98.5502 62.1071 98.6552 62.0017C98.7602 61.8962 98.8939 61.8244 99.0395 61.7953C99.1851 61.7662 99.336 61.7811 99.4731 61.8382C99.6103 61.8953 99.7275 61.9919 99.81 62.1159C99.8925 62.24 99.9365 62.3858 99.9365 62.5349C99.9365 62.735 99.8574 62.9268 99.7166 63.0682C99.5759 63.2097 99.385 63.2891 99.1859 63.2891ZM99.1859 62.1938C99.1183 62.1938 99.0522 62.214 98.996 62.2518C98.9398 62.2896 98.896 62.3433 98.8702 62.4061C98.8444 62.469 98.8378 62.5381 98.8511 62.6047C98.8644 62.6713 98.8972 62.7325 98.9452 62.7804C98.9931 62.8283 99.0542 62.8608 99.1206 62.8738C99.1869 62.8868 99.2557 62.8798 99.318 62.8535C99.3804 62.8272 99.4336 62.7829 99.4709 62.7262C99.5082 62.6694 99.5279 62.6029 99.5275 62.5349C99.5264 62.4448 99.4898 62.3588 99.4259 62.2957C99.3619 62.2325 99.2756 62.1974 99.1859 62.1979V62.1938Z" fill="#FDFDFD"/>
<path id="Vector_68" d="M38.5219 91.0622C38.2743 91.0622 38.0323 90.9884 37.8265 90.8502C37.6207 90.712 37.4603 90.5156 37.3655 90.2858C37.2708 90.056 37.246 89.8031 37.2943 89.5592C37.3426 89.3152 37.4618 89.0911 37.6368 88.9152C37.8119 88.7393 38.0349 88.6196 38.2777 88.571C38.5205 88.5225 38.7721 88.5474 39.0008 88.6426C39.2295 88.7378 39.425 88.899 39.5625 89.1058C39.7001 89.3126 39.7735 89.5558 39.7735 89.8045C39.7735 90.1381 39.6416 90.458 39.4069 90.6938C39.1722 90.9297 38.8538 91.0622 38.5219 91.0622ZM38.5219 89.2353C38.4093 89.2353 38.2993 89.2689 38.2058 89.3317C38.1123 89.3946 38.0394 89.4839 37.9964 89.5884C37.9534 89.6929 37.9423 89.8079 37.9644 89.9188C37.9865 90.0297 38.0409 90.1315 38.1206 90.2113C38.2003 90.2911 38.3018 90.3453 38.4122 90.3671C38.5226 90.3889 38.637 90.3773 38.7409 90.3338C38.8447 90.2902 38.9334 90.2167 38.9956 90.1225C39.0578 90.0283 39.0908 89.9176 39.0904 89.8045C39.0899 89.6534 39.0297 89.5086 38.9232 89.4019C38.8166 89.2952 38.6723 89.2353 38.5219 89.2353Z" fill="#FDFDFD"/>
<path id="Vector_69" d="M110.479 37.7415C110.232 37.7415 109.99 37.6679 109.785 37.5299C109.579 37.392 109.419 37.1959 109.324 36.9664C109.23 36.737 109.205 36.4845 109.253 36.241C109.302 35.9974 109.421 35.7737 109.595 35.5981C109.77 35.4225 109.993 35.3029 110.235 35.2545C110.477 35.206 110.729 35.2309 110.957 35.3259C111.185 35.421 111.381 35.5819 111.518 35.7884C111.655 35.9948 111.728 36.2376 111.728 36.4859C111.728 36.8188 111.596 37.1378 111.362 37.3732C111.128 37.6085 110.81 37.741 110.479 37.7415ZM110.479 35.9147C110.366 35.9147 110.257 35.9482 110.163 36.0109C110.07 36.0737 109.997 36.1629 109.954 36.2673C109.911 36.3717 109.899 36.4866 109.921 36.5974C109.943 36.7082 109.997 36.81 110.077 36.8899C110.156 36.9698 110.258 37.0242 110.368 37.0462C110.478 37.0683 110.593 37.057 110.696 37.0137C110.8 36.9705 110.889 36.8973 110.952 36.8033C111.014 36.7094 111.047 36.5989 111.047 36.4859C111.047 36.3346 110.987 36.1896 110.88 36.0826C110.774 35.9756 110.629 35.9152 110.479 35.9147Z" fill="#FDFDFD"/>
<path id="Vector_70" d="M78.8024 58.499C78.6539 58.499 78.5088 58.4547 78.3854 58.3719C78.262 58.289 78.1658 58.1712 78.1089 58.0334C78.0521 57.8956 78.0373 57.7439 78.0662 57.5976C78.0952 57.4513 78.1667 57.317 78.2717 57.2115C78.3766 57.106 78.5104 57.0342 78.6559 57.0051C78.8015 56.976 78.9525 56.9909 79.0896 57.048C79.2267 57.1051 79.344 57.2018 79.4264 57.3258C79.5089 57.4498 79.5529 57.5956 79.5529 57.7448C79.5529 57.9448 79.4738 58.1366 79.3331 58.2781C79.1923 58.4195 79.0014 58.499 78.8024 58.499ZM78.8024 57.4016C78.7348 57.4016 78.6688 57.4217 78.6126 57.4594C78.5565 57.4971 78.5127 57.5507 78.4868 57.6134C78.461 57.6762 78.4542 57.7452 78.4674 57.8117C78.4806 57.8783 78.5131 57.9394 78.5609 57.9874C78.6086 58.0354 78.6695 58.0681 78.7357 58.0814C78.802 58.0946 78.8707 58.0878 78.9331 58.0618C78.9955 58.0359 79.0488 57.9919 79.0863 57.9354C79.1239 57.879 79.1439 57.8126 79.1439 57.7448C79.1442 57.6996 79.1355 57.6549 79.1185 57.6131C79.1014 57.5714 79.0762 57.5334 79.0445 57.5015C79.0127 57.4696 78.9749 57.4443 78.9334 57.4272C78.8918 57.41 78.8473 57.4013 78.8024 57.4016Z" fill="#FDFDFD"/>
<path id="Vector_71" d="M69.2397 26.131C69.091 26.1314 68.9456 26.0875 68.8219 26.0048C68.6982 25.9221 68.6016 25.8043 68.5446 25.6664C68.4875 25.5285 68.4725 25.3767 68.5014 25.2302C68.5303 25.0837 68.6018 24.9492 68.7069 24.8436C68.812 24.738 68.9459 24.6661 69.0917 24.6371C69.2375 24.608 69.3886 24.6231 69.5258 24.6805C69.663 24.7378 69.7802 24.8348 69.8625 24.9591C69.9448 25.0835 69.9886 25.2296 69.9882 25.3789C69.9882 25.5784 69.9093 25.7697 69.7689 25.9107C69.6286 26.0518 69.4382 26.131 69.2397 26.131ZM69.2397 25.0357C69.172 25.0353 69.1058 25.0551 69.0494 25.0926C68.9929 25.13 68.9488 25.1835 68.9227 25.2462C68.8965 25.3088 68.8894 25.3779 68.9024 25.4446C68.9153 25.5113 68.9477 25.5726 68.9954 25.6208C69.0431 25.669 69.1039 25.7019 69.1702 25.7153C69.2365 25.7287 69.3053 25.7221 69.3678 25.6962C69.4304 25.6702 69.4838 25.6263 69.5214 25.5698C69.5591 25.5133 69.5791 25.4469 69.5791 25.3789C69.5791 25.2882 69.5434 25.2013 69.4798 25.137C69.4162 25.0727 69.3299 25.0363 69.2397 25.0357Z" fill="#FDFDFD"/>
</g>
<g id="character 3">
<path id="Vector_72" d="M102.868 52.6894C110.389 45.132 110.389 32.8792 102.868 25.3219C95.3471 17.7645 83.1531 17.7645 75.6321 25.3219C68.1111 32.8792 68.1111 45.132 75.6321 52.6894C83.1531 60.2467 95.3471 60.2467 102.868 52.6894Z" fill="#4C6ED7"/>
<path id="Vector_73" d="M79.4277 55.6549C82.0455 57.2154 84.9941 58.1303 88.0318 58.3246C91.0695 58.519 94.1097 57.9872 96.9034 56.7729C99.697 55.5586 102.165 53.6964 104.104 51.3388C106.043 48.9813 107.398 46.1956 108.059 43.21H104.255V44.8766H106.687V46.7651H101.38V40.4316H100.494V48.4317H98.6148V44.7656H97.398V55.8769H85.8984V52.3218H90.099V42.4332H79.5954V52.3218H83.796V55.6549H79.4277Z" fill="#263238"/>
<g id="Group">
<path id="Vector_74" d="M90.5827 36.3934L96.7466 40.3719L88.1081 50.6344L82.6641 45.7066L90.5827 36.3934Z" fill="#263238" stroke="#263238" stroke-width="0.5" stroke-linecap="round" stroke-linejoin="round"/>
<path id="Vector_75" d="M92.8772 37.7046L93.2821 37.2073L94.7219 38.1115L94.227 38.6992L92.8772 37.7046Z" fill="white" stroke="#263238" stroke-width="0.5" stroke-linecap="round" stroke-linejoin="round"/>
<path id="Vector_76" d="M90.5379 37.2524L95.667 40.6432L87.9284 50.0015L83.4291 45.6614L90.5379 37.2524Z" fill="white" stroke="#263238" stroke-width="0.5" stroke-linecap="round" stroke-linejoin="round"/>
<path id="Vector_77" d="M90.2963 39.106L93.364 41.4795" stroke="#263238" stroke-width="0.5" stroke-linecap="round" stroke-linejoin="round"/>
<path id="Vector_78" d="M89.6234 39.9362L92.693 42.3076" stroke="#263238" stroke-width="0.5" stroke-linecap="round" stroke-linejoin="round"/>
<path id="Vector_79" d="M88.9528 40.7665L92.0225 43.1379" stroke="#263238" stroke-width="0.5" stroke-linecap="round" stroke-linejoin="round"/>
<path id="Vector_80" d="M88.2819 41.5946L91.3495 43.9681" stroke="#263238" stroke-width="0.5" stroke-linecap="round" stroke-linejoin="round"/>
<path id="Vector_81" d="M87.6112 42.4247L90.6789 44.7961" stroke="#263238" stroke-width="0.5" stroke-linecap="round" stroke-linejoin="round"/>
<path id="Vector_82" d="M86.9402 43.255L90.0079 45.6265" stroke="#263238" stroke-width="0.5" stroke-linecap="round" stroke-linejoin="round"/>
<path id="Vector_83" d="M86.2697 44.0852L89.3373 46.4567" stroke="#263238" stroke-width="0.5" stroke-linecap="round" stroke-linejoin="round"/>
<path id="Vector_84" d="M85.5987 44.9133L88.6663 47.2868" stroke="#263238" stroke-width="0.5" stroke-linecap="round" stroke-linejoin="round"/>
<path id="Vector_85" d="M92.2922 37.3881L91.6624 38.1566L94.2719 39.739L94.8568 39.0156L92.2922 37.3881Z" fill="white" stroke="#263238" stroke-width="0.5" stroke-linecap="round" stroke-linejoin="round"/>
<path id="Vector_86" d="M83.9236 41.8186C83.9236 41.8186 85.6333 40.6432 86.1282 40.6432C86.6231 40.6432 89.1959 40.8692 88.9627 41.2761C88.7296 41.683 88.6028 41.9543 87.9729 41.9995C87.343 42.0447 86.3982 41.9995 86.3982 41.9995C86.3982 41.9995 85.7683 42.5872 85.2284 42.7228C84.6885 42.8585 84.7334 43.1749 84.7334 43.1749L83.9236 41.8186Z" fill="#949494" stroke="#263238" stroke-width="0.5" stroke-linecap="round" stroke-linejoin="round"/>
<path id="Vector_87" d="M77.2648 28.1674C77.2648 28.1674 73.96 30.8203 72.6777 32.8445C71.3954 34.8687 68.4934 41.05 68.4934 43.4913V59.5613H84.3511C84.3511 59.5613 83.3388 45.1764 83.1363 41.796C82.9339 38.4155 82.394 34.7433 82.394 34.7433L77.2648 28.1674Z" fill="white" stroke="#263238" stroke-width="0.5" stroke-linecap="round" stroke-linejoin="round"/>
<path id="Vector_88" d="M80.0278 26.5377L78.5962 28.3872L82.4185 32.9719L84.5965 30.3292C84.5965 30.3292 85.9115 26.9426 84.4329 25.2903C82.9543 23.6381 81.0135 25.5061 80.0278 26.5377Z" fill="#FFD1A8" stroke="#263238" stroke-width="0.5" stroke-linecap="round" stroke-linejoin="round"/>
<path id="Vector_89" d="M84.5906 30.3375C84.5906 30.3375 85.9056 26.9509 84.427 25.2987C84.225 25.0636 83.9716 24.8786 83.6867 24.7582C83.6008 24.9411 83.4822 25.1281 83.384 25.0623C83.3773 24.924 83.3589 24.7865 83.3288 24.6513C82.6743 24.5527 81.9995 24.8568 81.3962 25.2945C81.3353 25.7075 81.3972 26.1293 81.5741 26.507C81.7561 26.8111 82.5394 27.0536 82.5394 27.0536C82.5394 27.0536 81.6927 29.1476 82.1753 29.8134C82.4248 30.1587 82.9198 30.9827 83.4597 31.6999L84.5906 30.3375Z" fill="#263238" stroke="#263238" stroke-width="0.5" stroke-linecap="round" stroke-linejoin="round"/>
<path id="Vector_90" d="M91.1224 24.7314C91.1224 24.7314 92.2697 24.9739 92.9937 24.1149C93.7176 23.2559 91.7871 20.2947 90.3984 19.3247C89.0098 18.3548 83.8255 17.4629 82.3776 18.9117C80.9296 20.3604 79.2404 26.6733 79.7189 26.9261C80.1975 27.1789 82.7968 26.9857 83.4001 26.6836C84.0034 26.3815 84.3061 24.8033 85.572 24.8629C86.8379 24.9225 87.5639 25.2883 88.3492 25.2287C89.1346 25.1691 91.1224 24.7314 91.1224 24.7314Z" fill="#263238" stroke="#263238" stroke-width="0.5" stroke-linecap="round" stroke-linejoin="round"/>
<path id="Vector_91" d="M83.8256 24.9142C83.8256 24.9142 83.7663 23.2168 82.619 23.9443C81.4717 24.6717 81.8357 26.0671 82.0157 26.3691C82.1956 26.6712 82.9809 26.9158 82.9809 26.9158C82.9809 26.9158 82.1343 29.0098 82.6169 29.6756C83.0996 30.3414 84.5086 32.8156 85.3717 32.8156C85.6416 32.8156 88.1714 30.0085 88.1714 30.0085L88.9567 30.251L90.2206 27.1213L91.1286 24.7375L87.3268 23.0935C87.3268 23.0935 87.0241 24.4868 86.0588 24.3059C85.4604 24.1972 84.8474 24.1972 84.2489 24.3059C84.2489 24.3059 84.0076 25.0355 83.8256 24.9142Z" fill="#FFD1A8" stroke="#263238" stroke-width="0.5" stroke-linecap="round" stroke-linejoin="round"/>
<path id="Vector_92" d="M90.6317 27.3639L86.1938 25.3809L85.7009 26.7865C85.7009 26.7865 87.2613 28.6853 88.0426 28.8928C88.8238 29.1004 89.3167 28.3544 89.6787 28.5209L89.4741 29.3059C89.4741 29.3059 90.2636 29.5874 90.6317 27.3639Z" fill="white" stroke="#263238" stroke-width="0.5" stroke-linecap="round" stroke-linejoin="round"/>
<path id="Vector_93" d="M83.627 24.1621L90.6314 27.3638" stroke="#263238" stroke-width="0.5" stroke-linecap="round" stroke-linejoin="round"/>
<path id="Vector_94" d="M78.0541 27.1995C78.0541 27.1995 80.316 29.8833 81.2199 30.9991C82.1239 32.115 83.1934 33.5185 83.1934 33.5185L82.9051 36.2845C82.9051 36.2845 79.6166 31.741 78.7944 30.8738C77.9723 30.0066 76.5755 28.3955 76.5755 28.3955L78.0541 27.1995Z" fill="white" stroke="#263238" stroke-width="0.5" stroke-linecap="round" stroke-linejoin="round"/>
<path id="Vector_95" d="M108.459 50.6797H110.211V57.9954C110.211 58.1725 110.141 58.3424 110.017 58.4677C109.892 58.5929 109.723 58.6633 109.547 58.6633H109.119C108.943 58.6633 108.774 58.5929 108.649 58.4677C108.525 58.3424 108.455 58.1725 108.455 57.9954V50.6797H108.459Z" fill="white" stroke="#263238" stroke-width="0.5" stroke-linecap="round" stroke-linejoin="round"/>
<path id="Vector_96" d="M109.336 58.3264C109.16 58.3264 108.991 58.256 108.866 58.1308C108.741 58.0055 108.671 57.8356 108.671 57.6585V51.5593H110.001V57.6585C110.001 57.8356 109.931 58.0055 109.806 58.1308C109.681 58.256 109.512 58.3264 109.336 58.3264V58.3264Z" fill="#4C6ED7" stroke="#263238" stroke-width="0.5" stroke-linecap="round" stroke-linejoin="round"/>
<path id="Vector_97" d="M105.667 50.6797H107.42V57.9954C107.42 58.1725 107.35 58.3424 107.225 58.4677C107.101 58.5929 106.932 58.6633 106.755 58.6633H106.33C106.154 58.6633 105.985 58.5929 105.86 58.4677C105.735 58.3424 105.665 58.1725 105.665 57.9954V50.6797H105.667Z" fill="white" stroke="#263238" stroke-width="0.5" stroke-linecap="round" stroke-linejoin="round"/>
<path id="Vector_98" d="M107.6 50.3201H105.489V50.7875H107.6V50.3201Z" fill="white" stroke="#263238" stroke-width="0.5" stroke-linecap="round" stroke-linejoin="round"/>
<path id="Vector_99" d="M106.545 58.3264C106.457 58.3264 106.371 58.3091 106.291 58.2755C106.21 58.2419 106.137 58.1927 106.075 58.1306C106.014 58.0686 105.965 57.995 105.932 57.9139C105.899 57.8329 105.882 57.7461 105.882 57.6585V51.5593H107.209V57.6585C107.209 57.7463 107.192 57.8333 107.159 57.9144C107.126 57.9956 107.077 58.0693 107.015 58.1314C106.953 58.1934 106.88 58.2426 106.799 58.2761C106.718 58.3096 106.632 58.3267 106.545 58.3264V58.3264Z" fill="#4C6ED7" stroke="#263238" stroke-width="0.5" stroke-linecap="round" stroke-linejoin="round"/>
<path id="Vector_100" d="M102.861 50.6797H104.62V57.9954C104.62 58.1725 104.55 58.3424 104.426 58.4677C104.301 58.5929 104.132 58.6633 103.956 58.6633H103.53C103.354 58.6633 103.185 58.5929 103.06 58.4677C102.936 58.3424 102.865 58.1725 102.865 57.9954V50.6797H102.861Z" fill="white" stroke="#263238" stroke-width="0.5" stroke-linecap="round" stroke-linejoin="round"/>
<path id="Vector_101" d="M104.794 50.3201H102.683V50.7875H104.794V50.3201Z" fill="white" stroke="#263238" stroke-width="0.5" stroke-linecap="round" stroke-linejoin="round"/>
<path id="Vector_102" d="M103.739 58.3264C103.562 58.3264 103.393 58.256 103.269 58.1308C103.144 58.0055 103.074 57.8356 103.074 57.6585V51.5593H104.403V57.6585C104.404 57.7463 104.387 57.8333 104.353 57.9144C104.32 57.9956 104.271 58.0693 104.209 58.1314C104.148 58.1934 104.074 58.2426 103.993 58.2761C103.913 58.3096 103.826 58.3267 103.739 58.3264V58.3264Z" fill="#4C6ED7" stroke="#263238" stroke-width="0.5" stroke-linecap="round" stroke-linejoin="round"/>
<path id="Vector_103" d="M100.086 50.6797H101.839V57.9954C101.839 58.1725 101.769 58.3424 101.644 58.4677C101.52 58.5929 101.351 58.6633 101.174 58.6633H100.749C100.573 58.6633 100.404 58.5929 100.279 58.4677C100.154 58.3424 100.084 58.1725 100.084 57.9954V50.6797H100.086Z" fill="white" stroke="#263238" stroke-width="0.5" stroke-linecap="round" stroke-linejoin="round"/>
<path id="Vector_104" d="M102.017 50.3201H99.9061V50.7875H102.017V50.3201Z" fill="white" stroke="#263238" stroke-width="0.5" stroke-linecap="round" stroke-linejoin="round"/>
<path id="Vector_105" d="M100.963 58.3264C100.787 58.3264 100.618 58.256 100.493 58.1308C100.369 58.0055 100.299 57.8356 100.299 57.6585V51.5593H101.628V57.6585C101.628 57.7463 101.611 57.8333 101.578 57.9144C101.545 57.9956 101.496 58.0693 101.434 58.1314C101.372 58.1934 101.299 58.2426 101.218 58.2761C101.137 58.3096 101.051 58.3267 100.963 58.3264V58.3264Z" fill="#4C6ED7" stroke="#263238" stroke-width="0.5" stroke-linecap="round" stroke-linejoin="round"/>
<path id="Vector_106" d="M110.391 50.3201H108.281V50.7875H110.391V50.3201Z" fill="white" stroke="#263238" stroke-width="0.5" stroke-linecap="round" stroke-linejoin="round"/>
<path id="Vector_107" d="M111.645 57.5844H95.9693V59.4893H111.645V57.5844Z" fill="white" stroke="#263238" stroke-width="0.5" stroke-linecap="round" stroke-linejoin="round"/>
<path id="Vector_108" d="M111.645 52.7655H95.9693V53.1979H111.645V52.7655Z" fill="white" stroke="#263238" stroke-width="0.5" stroke-linecap="round" stroke-linejoin="round"/>
<path id="Vector_109" d="M95.2616 51.3701L100.012 50.9591C100.012 50.9591 102.129 51.8469 102.438 52.225C102.747 52.6031 102.303 54.1464 102.303 54.1464C102.303 54.1464 101.591 55.7123 101.28 55.741C100.969 55.7698 99.4398 55.7821 99.2353 55.6198C99.0307 55.4575 99.1391 55.0834 99.3191 55.067C99.4991 55.0506 97.5726 55.2335 96.822 54.9417C96.0715 54.6499 94.7238 53.7806 94.7238 53.7806L95.2616 51.3701Z" fill="#949494" stroke="#263238" stroke-width="0.5" stroke-linecap="round" stroke-linejoin="round"/>
<path id="Vector_110" d="M100.088 53.6841L101.409 54.7383C101.409 54.7383 101.741 55.3877 101.462 55.7781" stroke="#263238" stroke-width="0.5" stroke-linecap="round" stroke-linejoin="round"/>
<path id="Vector_111" d="M100.031 52.6031L101.849 53.6574C101.849 53.6574 102.381 53.5608 102.303 54.1588" stroke="#263238" stroke-width="0.5" stroke-linecap="round" stroke-linejoin="round"/>
<path id="Vector_112" d="M100.084 51.7318C100.084 51.7318 102.011 52.5024 102.162 52.6689C102.313 52.8353 102.471 53.5484 102.471 53.5484" stroke="#263238" stroke-width="0.5" stroke-linecap="round" stroke-linejoin="round"/>
<g id="Vector_113">
<path d="M76.465 40.6617C76.465 40.6617 82.179 51.6271 82.6269 52.0607C83.0748 52.4943 95.1307 54.5431 95.1307 54.5431L95.644 51.3702L86.6455 47.2603C86.6455 47.2603 82.8723 36.0401 81.8293 35.0496C80.7863 34.0591 79.3282 32.974 78.2913 33.4816" fill="white"/>
<path d="M76.465 40.6617C76.465 40.6617 82.179 51.6271 82.6269 52.0607C83.0748 52.4943 95.1307 54.5431 95.1307 54.5431L95.644 51.3702L86.6455 47.2603C86.6455 47.2603 82.8723 36.0401 81.8293 35.0496C80.7863 34.0591 79.3282 32.974 78.2913 33.4816" stroke="#263238" stroke-width="0.5" stroke-linecap="round" stroke-linejoin="round"/>
</g>
</g>
</g>
<g id="character 1">
<path id="Vector_114" d="M61.8062 52.6761C69.3184 45.1276 69.3184 32.889 61.8062 25.3405C54.294 17.792 42.1143 17.792 34.6021 25.3405C27.0898 32.889 27.0898 45.1276 34.6021 52.6761C42.1143 60.2246 54.294 60.2246 61.8062 52.6761Z" fill="#4C6ED7"/>
<path id="Vector_115" d="M58.8093 46.321V53.9882H41.7756V49.8782H39.5649V54.991H38.3583V53.5525H35.5278C37.8323 55.5812 40.5857 57.0275 43.5588 57.7711C46.5319 58.5146 49.6387 58.5339 52.6207 57.8273C55.6027 57.1207 58.3737 55.7087 60.7029 53.7088C63.0322 51.7088 64.8524 49.1788 66.0121 46.3293L58.8093 46.321Z" fill="#263238"/>
<path id="Vector_116" d="M37.0207 42.7659H29.3332C30.0411 46.3575 31.7529 49.6722 34.268 52.3215H37.0289L37.0207 42.7659Z" fill="#263238"/>
<g id="Group_2">
<path id="Vector_117" d="M45.389 26.1186C45.389 26.1186 43.3562 24.3143 43.5279 23.1101C43.6731 22.0826 46.5956 18.5542 49.6489 18.4967C52.7023 18.4391 55.7127 19.4646 56.1094 22.5409C56.5062 25.6172 56.5593 26.9159 57.2424 28.3544C57.9255 29.7929 61.4348 36.7798 62.3981 38.7752C63.3613 40.7706 62.7948 42.5317 59.1689 43.7852C55.5429 45.0388 47.5527 45.8402 47.383 39.515C47.2132 33.1898 48.4055 29.4929 47.8349 27.9557C47.2643 26.4186 45.389 26.1186 45.389 26.1186Z" fill="#263238" stroke="#263238" stroke-width="0.5" stroke-linecap="round" stroke-linejoin="round"/>
<path id="Vector_118" d="M51.1214 34.4968C51.1214 34.4968 46.4974 34.4372 46.1947 34.6201C45.892 34.803 37.8671 39.5027 37.8671 39.5027L35.4252 32.3575L31.2266 34.9859C31.2266 34.9859 34.6358 47.1596 34.9405 47.2212C35.2452 47.2829 44.1251 45.2053 44.1251 45.2053L42.898 59.5716H61.2712C61.2712 59.5716 61.8847 38.9705 61.9399 37.8711C61.9952 36.7716 60.2405 34.7413 59.2179 34.6817C58.1954 34.6221 51.1214 34.4968 51.1214 34.4968Z" fill="white" stroke="#263238" stroke-width="0.5" stroke-linecap="round" stroke-linejoin="round"/>
<path id="Vector_119" d="M38.5644 42.2523L37.8649 39.5027L39.681 42.4125" stroke="#263238" stroke-width="0.5" stroke-linecap="round" stroke-linejoin="round"/>
<path id="Vector_120" d="M56.7534 44.673H52.8534V50.8009H56.7534V44.673Z" fill="#4C6ED7" stroke="#263238" stroke-width="0.5" stroke-linecap="round" stroke-linejoin="round"/>
<path id="Vector_121" d="M55.3362 43.0352H54.2728V45.5299H55.3362V43.0352Z" fill="#263238" stroke="#263238" stroke-width="0.5" stroke-linecap="round" stroke-linejoin="round"/>
<path id="Vector_122" d="M50.6694 34.2132C50.6694 34.2132 50.3279 34.7825 49.8186 35.4668C49.3094 36.1511 47.6652 37.345 47.6652 37.345L49.1376 38.0848L47.3829 39.5089C47.5658 40.9741 47.8689 42.4216 48.2889 43.8367C48.7298 45.2991 49.0889 46.7851 49.3646 48.2878L56.5593 39.9076L55.1993 38.5986L57.1831 38.1424C57.1831 38.1424 56.956 35.5223 56.5041 34.4434C56.0521 33.3645 55.3138 33.3049 54.1808 33.3049C53.0479 33.3049 51.0662 33.644 50.6694 34.2132Z" fill="white" stroke="#263238" stroke-width="0.5" stroke-linecap="round" stroke-linejoin="round"/>
<path id="Vector_123" d="M50.3278 33.5308C50.5516 34.3644 50.6284 35.231 50.5548 36.0913C50.4423 37.5729 49.2521 44.8044 50.0456 45.0325C50.8391 45.2606 55.0315 35.0104 55.0315 34.3836C55.0315 33.7568 54.238 29.4866 54.238 29.4866C54.238 29.4866 52.9926 33.3582 50.3278 33.5308Z" fill="#FFD1A8" stroke="#263238" stroke-width="0.5" stroke-linecap="round" stroke-linejoin="round"/>
<path id="Vector_124" d="M54.238 29.4866C54.238 29.4866 52.9925 33.3582 50.3278 33.5308C50.4552 33.9923 50.5327 34.4663 50.5589 34.9446C50.671 34.9637 50.7846 34.9733 50.8983 34.9734C52.6551 34.9734 54.4814 32.0717 54.4814 31.2744C54.4814 31.1388 54.4814 30.997 54.4814 30.8634C54.3484 30.0805 54.238 29.4866 54.238 29.4866Z" fill="#263238" stroke="#263238" stroke-width="0.5" stroke-linecap="round" stroke-linejoin="round"/>
<path id="Vector_125" d="M50.0455 45.0326C50.4545 45.1477 51.7123 42.5934 52.8677 39.9548C51.9564 40.2146 50.9897 40.2039 50.0844 39.924C49.8103 42.3283 49.5772 44.897 50.0455 45.0326Z" fill="#4C6ED7" stroke="#263238" stroke-width="0.5" stroke-linecap="round" stroke-linejoin="round"/>
<path id="Vector_126" d="M46.0227 23.1676C46.0227 23.1676 45.2946 24.6862 45.2946 25.5966C45.2946 26.5069 46.0779 29.6572 46.9307 30.8532C47.7835 32.0492 49.0699 34.3816 50.8266 34.3816C52.5834 34.3816 54.4096 31.48 54.4096 30.6827C54.4096 29.8853 54.4669 28.9174 54.4669 28.9174C54.4669 28.9174 55.2604 27.9495 55.0334 27.1522C54.8064 26.3549 54.5814 26.2994 54.5814 26.2994C54.5814 26.2994 51.2377 26.5254 49.4237 25.5021C48.2321 24.8128 47.095 24.0323 46.0227 23.1676Z" fill="#FFD1A8" stroke="#263238" stroke-width="0.5" stroke-linecap="round" stroke-linejoin="round"/>
<path id="Vector_127" d="M47.6345 30.4381C47.7267 30.5473 47.8424 30.6339 47.9728 30.6914C48.1032 30.7488 48.2449 30.7756 48.3871 30.7696" stroke="#263238" stroke-width="0.5" stroke-linecap="round" stroke-linejoin="round"/>
<path id="Vector_128" d="M52.78 26.1884C52.78 26.1884 47.3074 26.6692 44.4483 28.1837C44.4483 28.1837 45.2234 30.5305 45.6508 30.6189C46.0782 30.7073 47.2542 30.4339 47.4157 30.1627C47.5773 29.8914 47.4157 28.9461 47.7532 28.8352C48.0906 28.7242 48.3953 29.8873 48.9414 29.9181C49.4874 29.949 51.6 29.3222 52.009 29.1331C52.4181 28.9441 53.1073 27.783 53.1073 27.783L52.78 26.1884Z" fill="white" stroke="#263238" stroke-width="0.5" stroke-linecap="round" stroke-linejoin="round"/>
<path id="Vector_129" d="M44.4483 28.1837C47.0685 26.9762 49.8995 26.2982 52.78 26.1884" stroke="#263238" stroke-width="0.5" stroke-linecap="round" stroke-linejoin="round"/>
<g id="Vector_130">
<path d="M59.457 34.8645C59.457 34.8645 61.2812 34.8029 62.4981 35.4153C63.7149 36.0276 64.8704 37.6161 64.5677 38.7772C64.265 39.9383 59.0909 56.3822 59.0909 56.3822L48.2192 49.1631L50.2479 44.449L56.1235 48.2712L58.8476 39.3279" fill="white"/>
<path d="M59.457 34.8645C59.457 34.8645 61.2812 34.8029 62.4981 35.4153C63.7149 36.0276 64.8704 37.6161 64.5677 38.7772C64.265 39.9383 59.0909 56.3822 59.0909 56.3822L48.2192 49.1631L50.2479 44.449L56.1235 48.2712L58.8476 39.3279" stroke="#263238" stroke-width="0.5" stroke-linecap="round" stroke-linejoin="round"/>
</g>
<path id="Vector_131" d="M56.1236 48.2712L56.9069 50.2666" stroke="#263238" stroke-width="0.5" stroke-linecap="round" stroke-linejoin="round"/>
<path id="Vector_132" d="M42.3775 36.787L44.1391 36.7196L44.4048 43.7323C44.4119 43.9207 44.3443 44.1043 44.2167 44.2426C44.0891 44.3809 43.9121 44.4627 43.7246 44.4698L43.3854 44.4828C43.1978 44.49 43.0151 44.422 42.8775 44.2938C42.7398 44.1657 42.6585 43.9878 42.6513 43.7994L42.3857 36.7867L42.3775 36.787Z" fill="#4C6ED7" stroke="#263238" stroke-width="0.5" stroke-linecap="round" stroke-linejoin="round"/>
<path id="Vector_133" d="M44.322 36.4037L42.1578 36.4865L42.1736 36.9021L44.3378 36.8193L44.322 36.4037Z" fill="white" stroke="#263238" stroke-width="0.5" stroke-linecap="round" stroke-linejoin="round"/>
<path id="Vector_134" d="M49.2523 43.7175C49.2523 43.7175 48.2973 42.7886 47.9026 41.9276C47.5079 41.0666 47.2093 39.9075 46.7798 39.7411C46.3503 39.5746 44.2746 38.4506 44.2746 38.4506V39.5438L43.1211 38.5163C43.1211 38.5163 42.2315 36.7285 42.1333 36.7614C42.0352 36.7942 41.8368 36.5559 41.6384 37.0265C41.4401 37.497 41.7366 38.2841 41.7366 38.2841C41.7366 38.2841 41.0781 38.7157 41.2764 39.3116C41.4748 39.9075 41.3419 40.6042 41.5403 41.531C41.7386 42.4578 41.9023 43.1873 42.4953 43.6846C43.3481 44.3224 44.2525 44.8874 45.199 45.3738C45.7593 45.6389 46.6817 46.2348 46.6817 46.2348L49.418 49.2145L51.7903 46.167L49.2523 43.7175Z" fill="#949494" stroke="#263238" stroke-width="0.5" stroke-linecap="round" stroke-linejoin="round"/>
<path id="Vector_135" d="M44.2742 39.5437L45.4951 40.339" stroke="#263238" stroke-width="0.5" stroke-linecap="round" stroke-linejoin="round"/>
<path id="Vector_136" d="M41.7364 38.2839C41.7364 38.2839 42.1659 39.708 42.4297 40.0409C42.6935 40.3738 44.3418 41.465 44.3418 41.465" stroke="#263238" stroke-width="0.5" stroke-linecap="round" stroke-linejoin="round"/>
<path id="Vector_137" d="M41.3414 39.8418C41.3414 39.8418 41.9672 41.6913 42.3292 41.9605C42.6912 42.2297 44.0778 42.8893 44.0778 42.8893" stroke="#263238" stroke-width="0.5" stroke-linecap="round" stroke-linejoin="round"/>
<path id="Vector_138" d="M41.7038 42.359C42.1606 43.0009 42.774 43.514 43.4851 43.8489" stroke="#263238" stroke-width="0.5" stroke-linecap="round" stroke-linejoin="round"/>
<path id="Vector_139" d="M34.6519 26.7804L42.5132 36.4656L43.0204 36.4224L35.9607 25.8043L34.6519 26.7804Z" fill="white" stroke="#263238" stroke-width="0.5" stroke-linecap="round" stroke-linejoin="round"/>
<path id="Vector_140" d="M34.3986 27.0782L36.137 25.7158L32.6521 21.3079L31.0447 22.4977L34.3986 27.0782Z" fill="#263238" stroke="#263238" stroke-width="0.5" stroke-linecap="round" stroke-linejoin="round"/>
<path id="Vector_141" d="M32.5991 34.1267L35.0532 32.5855C34.9469 31.0504 34.7403 28.1529 34.6688 27.6535C34.5726 26.9754 33.319 25.7157 33.319 25.7157C33.319 25.7157 34.8937 24.1971 35.1841 24.1971C35.4745 24.1971 36.1167 23.9381 35.9878 23.6792C35.859 23.4203 34.9653 23.3895 34.9653 23.3895L34.6442 23.0976L33.1002 21.579C33.1002 21.579 32.6175 20.9625 32.3598 20.9625C32.1021 20.9625 29.0877 23.4511 29.0161 23.7737C28.9445 24.0964 31.9426 27.5549 32.231 28.1056C32.4498 28.5228 32.5582 32.2731 32.5991 34.1267Z" fill="#949494" stroke="#263238" stroke-width="0.5" stroke-linecap="round" stroke-linejoin="round"/>
<path id="Vector_142" d="M34.9673 23.3937C34.6505 23.4034 34.3366 23.4573 34.0347 23.554C33.777 23.6834 32.2984 24.8465 32.2984 24.8465" stroke="#263238" stroke-width="0.5" stroke-linecap="round" stroke-linejoin="round"/>
<path id="Vector_143" d="M33.873 22.3948C33.873 22.3948 33.1981 22.6866 33.0692 22.8798C32.9404 23.0729 31.4618 24.0757 31.4618 24.0757" stroke="#263238" stroke-width="0.5" stroke-linecap="round" stroke-linejoin="round"/>
<path id="Vector_144" d="M33.1347 21.7126C33.1347 21.7126 30.8503 22.8758 30.5292 23.2642" stroke="#263238" stroke-width="0.5" stroke-linecap="round" stroke-linejoin="round"/>
<path id="Vector_145" d="M35.0611 32.5856C35.0223 32.0122 34.967 31.2478 34.9118 30.4895C33.6704 30.9437 32.9322 30.995 32.4986 30.9108C32.5477 32.0472 32.5804 33.2843 32.5988 34.1268L35.0611 32.5856Z" fill="white" stroke="#263238" stroke-width="0.5" stroke-linecap="round" stroke-linejoin="round"/>
</g>
</g>
<g id="character 2">
<path id="Vector_146" d="M80.8542 89.3409C88.3617 81.7972 88.3617 69.5665 80.8542 62.0228C73.3468 54.4792 61.1749 54.4792 53.6675 62.0228C46.1601 69.5665 46.1601 81.7972 53.6675 89.3409C61.1749 96.8846 73.3468 96.8846 80.8542 89.3409Z" fill="#4C6ED7"/>
<path id="Vector_147" d="M85.7453 81.0029H82.42V63.8047C82.0601 63.343 81.6804 62.8978 81.2809 62.469V65.2371H76.7265V74.8955H61.288V63.33H60.4025V72.2301H56.8603V65.7549H55.214V85.717H50.8334C52.7741 88.9271 55.604 91.499 58.9769 93.118C62.3497 94.737 66.1191 95.3329 69.8237 94.8327C73.5283 94.3324 77.0074 92.7578 79.8352 90.3015C82.6631 87.8453 84.7169 84.6139 85.7453 81.0029ZM78.9965 66.2543H81.2748V74.8996H79.0026L78.9965 66.2543Z" fill="#263238"/>
<g id="Group_3">
<path id="Vector_148" d="M49.4208 55.9883L51.3806 55.9134L51.6807 63.8337C51.6842 63.9275 51.6692 64.0211 51.6366 64.1091C51.604 64.1971 51.5543 64.2777 51.4905 64.3463C51.4267 64.4149 51.35 64.4701 51.2648 64.5088C51.1797 64.5474 51.0877 64.5687 50.9943 64.5715L50.4467 64.5924C50.2591 64.5996 50.0764 64.5316 49.9388 64.4035C49.8011 64.2753 49.7198 64.0974 49.7126 63.909L49.4126 55.9886L49.4208 55.9883Z" fill="white" stroke="#263238" stroke-width="0.5" stroke-linecap="round" stroke-linejoin="round"/>
<path id="Vector_149" d="M50.7042 64.3164C50.5168 64.3236 50.3342 64.2558 50.1966 64.1279C50.0589 64 49.9774 63.8224 49.97 63.6341L49.7205 57.0582L51.1336 57.0027L51.3831 63.5786C51.3903 63.7669 51.3229 63.9503 51.1955 64.0887C51.0682 64.227 50.8915 64.3089 50.7042 64.3164V64.3164Z" fill="#4C6ED7" stroke="#263238" stroke-width="0.5" stroke-linecap="round" stroke-linejoin="round"/>
<path id="Vector_150" d="M51.5967 55.5598L49.175 55.6525L49.1927 56.1175L51.6144 56.0249L51.5967 55.5598Z" fill="white" stroke="#263238" stroke-width="0.5" stroke-linecap="round" stroke-linejoin="round"/>
<path id="Vector_151" d="M44.4153 67.7707C44.4153 67.7707 43.8958 63.3669 43.8958 62.4976C43.8958 61.6284 46.491 58.2664 46.9635 57.9171C47.4359 57.5677 50.6549 57.802 50.6549 57.802C50.6549 57.802 52.3278 59.598 52.3278 59.8878C52.3278 60.1775 51.9187 60.2988 51.9187 60.2988C51.9187 60.2988 52.0905 60.4139 51.8022 60.7632C51.5887 60.981 51.2985 61.1057 50.9944 61.1105C50.9944 61.1105 50.8798 61.8051 50.4176 61.8051H49.9534L48.9145 62.3846C48.9145 62.3846 48.1639 63.2538 47.9921 63.7183C47.8204 64.1827 47.5831 64.3553 47.5831 64.6451C47.5831 64.9348 47.757 66.4945 47.757 66.4945L44.4153 67.7707Z" fill="#949494" stroke="#263238" stroke-width="0.5" stroke-linecap="round" stroke-linejoin="round"/>
<path id="Vector_152" d="M51.9151 60.2947C51.9151 60.2947 50.414 58.2665 49.8965 58.2665C49.3791 58.2665 47.8187 58.324 47.8187 58.324" stroke="#263238" stroke-width="0.5" stroke-linecap="round" stroke-linejoin="round"/>
<path id="Vector_153" d="M50.9902 61.1064C50.9902 61.1064 49.6649 59.5981 49.1496 59.483C48.6342 59.3679 47.131 59.3679 47.131 59.3679" stroke="#263238" stroke-width="0.5" stroke-linecap="round" stroke-linejoin="round"/>
<g id="Vector_154">
<path d="M49.9532 61.8011C49.9532 61.8011 48.174 60.2373 47.765 60.2373C47.3559 60.2373 45.861 60.5271 45.861 60.5271" fill="white"/>
<path d="M49.9532 61.8011C49.9532 61.8011 48.174 60.2373 47.765 60.2373C47.3559 60.2373 45.861 60.5271 45.861 60.5271" stroke="#263238" stroke-width="0.5" stroke-linecap="round" stroke-linejoin="round"/>
</g>
<g id="Vector_155">
<path d="M45.6853 61.9757L47.1844 61.4537C47.1844 61.4537 48.9145 62.2079 49.3767 62.2079C49.8389 62.2079 50.1947 62.1483 49.5485 61.5112C48.9022 60.8742 48.5116 60.2947 47.7611 60.2372C47.2089 60.2271 46.6601 60.3255 46.1455 60.5269" fill="#949494"/>
<path d="M45.6853 61.9757L47.1844 61.4537C47.1844 61.4537 48.9145 62.2079 49.3767 62.2079C49.8389 62.2079 50.1947 62.1483 49.5485 61.5112C48.9022 60.8742 48.5116 60.2947 47.7611 60.2372C47.2089 60.2271 46.6601 60.3255 46.1455 60.5269" stroke="#263238" stroke-width="0.5" stroke-linecap="round" stroke-linejoin="round"/>
</g>
<path id="Vector_156" d="M45.5158 64.7007C45.8313 64.8089 46.1752 64.7978 46.4831 64.6696C46.791 64.5414 47.0419 64.3047 47.1887 64.004C47.8227 62.9026 47.8227 62.2655 47.8227 62.2655" stroke="#263238" stroke-width="0.5" stroke-linecap="round" stroke-linejoin="round"/>
<path id="Vector_157" d="M65.8153 66.2069C65.8153 66.2069 58.2014 67.4234 57.913 67.5406C57.6247 67.6577 51.6264 75.3063 51.6264 75.3063L48.9678 65.5103L43.675 67.5406C43.675 67.5406 46.5607 77.0449 47.0801 79.3629C47.5996 81.6809 48.9207 83.9434 49.2704 84.116C49.6202 84.2887 56.7126 79.3629 56.7126 79.3629L56.7698 95.9979H79.4868C79.4868 95.9979 78.4418 70.5532 78.1023 69.8648C77.7628 69.1763 70.3738 65.9808 70.3738 65.9808L65.8153 66.2069Z" fill="white" stroke="#263238" stroke-width="0.5" stroke-linecap="round" stroke-linejoin="round"/>
<path id="Vector_158" d="M51.6265 75.3064C51.6265 75.3064 52.602 78.2327 52.1234 79.9959" stroke="#263238" stroke-width="0.5" stroke-linecap="round" stroke-linejoin="round"/>
<path id="Vector_159" d="M52.0436 76.6298C52.0436 76.6298 52.6019 77.4312 52.7614 79.0341" stroke="#263238" stroke-width="0.5" stroke-linecap="round" stroke-linejoin="round"/>
<path id="Vector_160" d="M62.7291 82.5583L63.1279 95.4616" stroke="#263238" stroke-width="0.5" stroke-linecap="round" stroke-linejoin="round"/>
<path id="Vector_161" d="M56.6676 77.6715L55.9498 73.3438" stroke="#263238" stroke-width="0.5" stroke-linecap="round" stroke-linejoin="round"/>
<path id="Vector_162" d="M56.7031 79.3629L56.5919 72.9904" stroke="#263238" stroke-width="0.5" stroke-linecap="round" stroke-linejoin="round"/>
<path id="Vector_163" d="M65.4902 65.9356C65.4902 65.9356 64.1446 66.8706 63.4206 67.9639C62.6966 69.0571 61.8765 70.1976 61.8765 70.1976L62.8582 71.1347L60.944 72.1745C60.944 72.1745 61.762 77.2154 62.1874 78.9313C62.6128 80.6472 62.8009 81.8432 62.8009 81.8432L71.648 72.8506L70.4067 71.2909L72.4231 70.6148C72.4231 70.6148 71.8096 67.6001 71.648 66.5603C71.4865 65.5205 70.5621 65.3643 70.2001 65.3643C69.8381 65.3643 66.1099 65.1568 65.4902 65.9356Z" fill="white" stroke="#263238" stroke-width="0.5" stroke-linecap="round" stroke-linejoin="round"/>
<path id="Vector_164" d="M64.4022 54.5511C64.1485 54.0348 64.0243 53.4642 64.0402 52.8886C64.0402 51.8488 66.1609 50.6014 68.0752 50.6014C69.9894 50.6014 72.6275 51.0124 74.0775 52.6277C75.5275 54.2429 75.0592 57.1486 74.5949 58.1391C74.2117 59.0361 73.8832 59.9557 73.6112 60.8928C73.5601 61.049 72.5764 61.725 72.0079 60.9462C71.4393 60.1674 71.9568 58.5542 71.335 57.3068C70.7133 56.0595 69.0588 55.071 67.6539 54.7073C66.2489 54.3436 64.4022 54.5511 64.4022 54.5511Z" fill="#263238" stroke="#263238" stroke-width="0.5" stroke-linecap="round" stroke-linejoin="round"/>
<path id="Vector_165" d="M65.3345 65.1567C65.3345 65.1567 64.9725 67.9104 64.6105 69.1598C64.2485 70.4093 63.4714 75.5529 63.3671 77.164C63.2628 78.7751 63.1626 79.7635 63.1626 79.7635C63.1626 79.7635 67.6025 72.902 68.6455 70.6661C69.6885 68.4303 70.9217 66.1452 70.9217 66.1452L71.5945 62.3517C71.5945 62.3517 68.0238 65.3129 65.3345 65.1567Z" fill="#FFD1A8" stroke="#263238" stroke-width="0.5" stroke-linecap="round" stroke-linejoin="round"/>
<path id="Vector_166" d="M65.3348 65.1567C65.3348 65.1567 65.2591 65.7342 65.1405 66.4781C65.7954 66.7906 66.5145 66.9431 67.2392 66.9231C67.9639 66.9031 68.6737 66.7112 69.3105 66.363C70.0201 65.9381 70.6494 65.3906 71.1695 64.7457L71.5948 62.3496C71.5948 62.3496 68.0241 65.3129 65.3348 65.1567Z" fill="#263238" stroke="#263238" stroke-width="0.5" stroke-linecap="round" stroke-linejoin="round"/>
<path id="Vector_167" d="M68.6785 70.5964C66.0199 71.3608 64.8501 70.6806 64.3838 70.1689C63.9932 72.1458 63.4574 75.8427 63.3612 77.1559C63.259 78.767 63.1567 79.7554 63.1567 79.7554C63.1567 79.7554 67.6028 72.9021 68.6458 70.6662L68.6785 70.5964Z" fill="#4C6ED7" stroke="#263238" stroke-width="0.5" stroke-linecap="round" stroke-linejoin="round"/>
<path id="Vector_168" d="M64.0403 54.1874C64.0403 54.1874 63.3081 58.1391 63.2652 59.7955C63.2222 61.4518 64.0935 65.2535 64.9729 65.722C65.6296 66.0397 66.352 66.1959 67.0806 66.1777C67.8093 66.1595 68.5231 65.9673 69.1633 65.6172C70.7155 64.7397 71.6931 63.0834 71.6931 63.0834C72.1701 62.9671 72.6319 62.7954 73.0694 62.5717C73.6645 62.2594 73.9427 61.6758 74.1554 61.0675C74.2658 60.7572 74.7178 59.5489 74.0736 59.5489C73.8772 59.531 73.6798 59.5705 73.5053 59.6628C73.3307 59.755 73.1865 59.896 73.0899 60.0688C72.9876 60.2249 72.7279 60.5887 72.5213 60.5353C72.3148 60.4818 72.5724 59.2879 72.5213 58.3015C72.4702 57.3151 71.7974 57.0007 71.7442 56.378C71.691 55.7554 72.6768 55.0772 72.6768 54.4546C72.6768 53.8319 71.3822 53.4661 70.3474 53.725C69.3126 53.984 67.7624 54.245 66.8298 53.6223C65.8972 52.9996 65.1753 52.5825 64.709 53.051C64.4081 53.3776 64.1801 53.7651 64.0403 54.1874Z" fill="#FFD1A8" stroke="#263238" stroke-width="0.5" stroke-linecap="round" stroke-linejoin="round"/>
<path id="Vector_169" d="M64.7129 60.79L65.4287 61.4291" stroke="#263238" stroke-width="0.5" stroke-linecap="round" stroke-linejoin="round"/>
<path id="Vector_170" d="M72.5255 58.659C72.5255 58.659 66.4208 56.3718 62.5924 56.5259C62.5924 56.5259 62.2304 59.4378 62.6435 59.7502C63.0567 60.0625 64.4555 60.3666 64.7643 60.1611C65.0731 59.9556 65.3778 58.8624 65.7991 58.9138C66.2204 58.9651 65.9546 60.3687 66.5251 60.6811C67.0957 60.9934 69.6807 61.4085 70.2063 61.4085C70.7319 61.4085 72.0674 60.5249 72.0674 60.5249L72.5255 58.659Z" fill="white" stroke="#263238" stroke-width="0.5" stroke-linecap="round" stroke-linejoin="round"/>
<path id="Vector_171" d="M62.5923 56.526C62.5923 56.526 67.7643 56.8096 72.5253 58.6591L73.7667 59.4379" stroke="#263238" stroke-width="0.5" stroke-linecap="round" stroke-linejoin="round"/>
<g id="Vector_172">
<path d="M75.7382 73.5637C75.7382 73.5637 74.0367 76.7694 74.2494 77.6243C74.4621 78.4792 77.4418 90.5234 77.4418 90.5234L77.9367 96.2239H83.8246L83.1824 87.143C83.1824 87.143 78.5768 70.1401 78.2926 69.8647C78.0083 69.5893 76.7322 70.1483 76.7322 70.1483" fill="white"/>
<path d="M75.7382 73.5637C75.7382 73.5637 74.0367 76.7694 74.2494 77.6243C74.4621 78.4792 77.4418 90.5234 77.4418 90.5234L77.9367 96.2239H83.8246L83.1824 87.143C83.1824 87.143 78.5768 70.1401 78.2926 69.8647C78.0083 69.5893 76.7322 70.1483 76.7322 70.1483" stroke="#263238" stroke-width="0.5" stroke-linecap="round" stroke-linejoin="round"/>
</g>
<path id="Vector_173" d="M72.5824 80.189H68.6824V86.3169H72.5824V80.189Z" fill="#4C6ED7" stroke="#263238" stroke-width="0.5" stroke-linecap="round" stroke-linejoin="round"/>
<path id="Vector_174" d="M71.1652 78.5491H70.1017V81.0438H71.1652V78.5491Z" fill="#263238" stroke="#263238" stroke-width="0.5" stroke-linecap="round" stroke-linejoin="round"/>
</g>
</g>
</g>
</g>
<defs>
<linearGradient id="paint0_linear_105_1041" x1="16.4189" y1="-1.02193" x2="52.4564" y2="52.6306" gradientUnits="userSpaceOnUse">
<stop stop-color="#4491F9"/>
<stop offset="1" stop-color="#2F80ED"/>
</linearGradient>
<linearGradient id="paint1_linear_105_1041" x1="115" y1="74.5" x2="147" y2="130" gradientUnits="userSpaceOnUse">
<stop stop-color="#4491F9"/>
<stop offset="1" stop-color="#2F80ED"/>
</linearGradient>
</defs>
</svg>
